{
	"asset":{
		"generator":"Khronos glTF Blender I/O v4.2.57",
		"version":"2.0"
	},
	"scene":0,
	"scenes":[
		{
			"name":"Scene",
			"nodes":[
				12
			]
		}
	],
	"nodes":[
		{
			"name":"hand.L",
			"rotation":[
				-0.4085826575756073,
				-0.09070120006799698,
				0.3566958010196686,
				0.835225522518158
			],
			"scale":[
				1,
				1,
				1.0000001192092896
			],
			"translation":[
				3.725290298461914e-08,
				0.7504388689994812,
				6.332993507385254e-08
			]
		},
		{
			"children":[
				0
			],
			"name":"\u30dc\u30fc\u30f3.L",
			"rotation":[
				0.2502644658088684,
				-0.09114925563335419,
				0.6043161153793335,
				0.7509071826934814
			],
			"translation":[
				-1.916196197271347e-07,
				1.2554668188095093,
				2.3283064365386963e-08
			]
		},
		{
			"children":[
				1
			],
			"name":"arm.L",
			"rotation":[
				0.07486331462860107,
				-0.06818556785583496,
				0.683577835559845,
				0.7228192090988159
			],
			"scale":[
				0.9999999403953552,
				1,
				1
			],
			"translation":[
				0,
				1.0000001192092896,
				0
			]
		},
		{
			"name":"hand.R",
			"rotation":[
				-0.4085826575756073,
				0.09070121496915817,
				-0.3566958010196686,
				0.835225522518158
			],
			"scale":[
				0.9999998211860657,
				0.9999999403953552,
				1
			],
			"translation":[
				1.2665987014770508e-07,
				0.7504388689994812,
				4.470348358154297e-08
			]
		},
		{
			"children":[
				3
			],
			"name":"\u30dc\u30fc\u30f3.R",
			"rotation":[
				0.2502644658088684,
				0.09114925563335419,
				-0.6043161153793335,
				0.7509071826934814
			],
			"translation":[
				1.909211277961731e-07,
				1.2554668188095093,
				2.514570951461792e-08
			]
		},
		{
			"children":[
				4
			],
			"name":"arm.R",
			"rotation":[
				0.07486331462860107,
				0.06818556785583496,
				-0.683577835559845,
				0.7228192090988159
			],
			"scale":[
				0.9999999403953552,
				1,
				1
			],
			"translation":[
				0,
				1.0000001192092896,
				0
			]
		},
		{
			"children":[
				2,
				5
			],
			"name":"\u30dc\u30fc\u30f3",
			"translation":[
				0,
				-0.5212315320968628,
				0
			]
		},
		{
			"name":"\u8db3.R",
			"rotation":[
				-0.008732661604881287,
				0.06491946429014206,
				0.669164776802063,
				0.740221381187439
			],
			"scale":[
				0.9999999403953552,
				0.9999998807907104,
				1.0000001192092896
			],
			"translation":[
				-4.781714579848995e-09,
				0.8565502762794495,
				4.842877388000488e-08
			]
		},
		{
			"children":[
				7
			],
			"name":"\u30ec\u30c3\u30b0.R",
			"rotation":[
				-0.5974684357643127,
				-0.2387290745973587,
				-0.7409330606460571,
				0.19250474870204926
			],
			"scale":[
				1.0000001192092896,
				0.9999999403953552,
				1.0000001192092896
			],
			"translation":[
				0,
				-0.5212315320968628,
				0
			]
		},
		{
			"name":"\u8db3.L",
			"rotation":[
				-0.008732667192816734,
				-0.06491948664188385,
				-0.6691648364067078,
				0.7402213215827942
			],
			"scale":[
				0.9999999403953552,
				0.9999999403953552,
				1.0000001192092896
			],
			"translation":[
				-7.440409177661422e-09,
				0.8565502762794495,
				1.30385160446167e-08
			]
		},
		{
			"children":[
				9
			],
			"name":"\u30ec\u30c3\u30b0.L",
			"rotation":[
				-0.5974684357643127,
				0.2387290745973587,
				0.7409330606460571,
				0.19250474870204926
			],
			"scale":[
				1.0000001192092896,
				0.9999999403953552,
				1.0000001192092896
			],
			"translation":[
				0,
				-0.5212315320968628,
				0
			]
		},
		{
			"mesh":0,
			"name":"\u80f4.003",
			"skin":0
		},
		{
			"children":[
				11,
				6,
				8,
				10
			],
			"name":"\u30a2\u30fc\u30de\u30c1\u30e5\u30a2.003",
			"rotation":[
				0,
				-1,
				0,
				4.371139183945161e-08
			],
			"scale":[
				0.774610161781311,
				0.774610161781311,
				0.774610161781311
			],
			"translation":[
				0,
				0.6800000071525574,
				0
			]
		}
	],
	"animations":[
		{
			"channels":[
				{
					"sampler":0,
					"target":{
						"node":6,
						"path":"translation"
					}
				},
				{
					"sampler":1,
					"target":{
						"node":6,
						"path":"rotation"
					}
				},
				{
					"sampler":2,
					"target":{
						"node":6,
						"path":"scale"
					}
				},
				{
					"sampler":3,
					"target":{
						"node":2,
						"path":"translation"
					}
				},
				{
					"sampler":4,
					"target":{
						"node":2,
						"path":"rotation"
					}
				},
				{
					"sampler":5,
					"target":{
						"node":2,
						"path":"scale"
					}
				},
				{
					"sampler":6,
					"target":{
						"node":1,
						"path":"translation"
					}
				},
				{
					"sampler":7,
					"target":{
						"node":1,
						"path":"rotation"
					}
				},
				{
					"sampler":8,
					"target":{
						"node":1,
						"path":"scale"
					}
				},
				{
					"sampler":9,
					"target":{
						"node":0,
						"path":"translation"
					}
				},
				{
					"sampler":10,
					"target":{
						"node":0,
						"path":"rotation"
					}
				},
				{
					"sampler":11,
					"target":{
						"node":0,
						"path":"scale"
					}
				},
				{
					"sampler":12,
					"target":{
						"node":5,
						"path":"translation"
					}
				},
				{
					"sampler":13,
					"target":{
						"node":5,
						"path":"rotation"
					}
				},
				{
					"sampler":14,
					"target":{
						"node":5,
						"path":"scale"
					}
				},
				{
					"sampler":15,
					"target":{
						"node":4,
						"path":"translation"
					}
				},
				{
					"sampler":16,
					"target":{
						"node":4,
						"path":"rotation"
					}
				},
				{
					"sampler":17,
					"target":{
						"node":4,
						"path":"scale"
					}
				},
				{
					"sampler":18,
					"target":{
						"node":3,
						"path":"translation"
					}
				},
				{
					"sampler":19,
					"target":{
						"node":3,
						"path":"rotation"
					}
				},
				{
					"sampler":20,
					"target":{
						"node":3,
						"path":"scale"
					}
				},
				{
					"sampler":21,
					"target":{
						"node":8,
						"path":"translation"
					}
				},
				{
					"sampler":22,
					"target":{
						"node":8,
						"path":"rotation"
					}
				},
				{
					"sampler":23,
					"target":{
						"node":8,
						"path":"scale"
					}
				},
				{
					"sampler":24,
					"target":{
						"node":7,
						"path":"translation"
					}
				},
				{
					"sampler":25,
					"target":{
						"node":7,
						"path":"rotation"
					}
				},
				{
					"sampler":26,
					"target":{
						"node":7,
						"path":"scale"
					}
				},
				{
					"sampler":27,
					"target":{
						"node":10,
						"path":"translation"
					}
				},
				{
					"sampler":28,
					"target":{
						"node":10,
						"path":"rotation"
					}
				},
				{
					"sampler":29,
					"target":{
						"node":10,
						"path":"scale"
					}
				},
				{
					"sampler":30,
					"target":{
						"node":9,
						"path":"translation"
					}
				},
				{
					"sampler":31,
					"target":{
						"node":9,
						"path":"rotation"
					}
				},
				{
					"sampler":32,
					"target":{
						"node":9,
						"path":"scale"
					}
				}
			],
			"name":"Action",
			"samplers":[
				{
					"input":7,
					"interpolation":"STEP",
					"output":8
				},
				{
					"input":7,
					"interpolation":"STEP",
					"output":9
				},
				{
					"input":7,
					"interpolation":"STEP",
					"output":10
				},
				{
					"input":7,
					"interpolation":"STEP",
					"output":11
				},
				{
					"input":12,
					"interpolation":"LINEAR",
					"output":13
				},
				{
					"input":7,
					"interpolation":"STEP",
					"output":14
				},
				{
					"input":7,
					"interpolation":"STEP",
					"output":15
				},
				{
					"input":7,
					"interpolation":"STEP",
					"output":16
				},
				{
					"input":7,
					"interpolation":"STEP",
					"output":17
				},
				{
					"input":7,
					"interpolation":"STEP",
					"output":18
				},
				{
					"input":7,
					"interpolation":"STEP",
					"output":19
				},
				{
					"input":7,
					"interpolation":"STEP",
					"output":20
				},
				{
					"input":7,
					"interpolation":"STEP",
					"output":21
				},
				{
					"input":12,
					"interpolation":"LINEAR",
					"output":22
				},
				{
					"input":7,
					"interpolation":"STEP",
					"output":23
				},
				{
					"input":7,
					"interpolation":"STEP",
					"output":24
				},
				{
					"input":7,
					"interpolation":"STEP",
					"output":25
				},
				{
					"input":7,
					"interpolation":"STEP",
					"output":26
				},
				{
					"input":7,
					"interpolation":"STEP",
					"output":27
				},
				{
					"input":7,
					"interpolation":"STEP",
					"output":28
				},
				{
					"input":7,
					"interpolation":"STEP",
					"output":29
				},
				{
					"input":7,
					"interpolation":"STEP",
					"output":30
				},
				{
					"input":7,
					"interpolation":"STEP",
					"output":31
				},
				{
					"input":7,
					"interpolation":"STEP",
					"output":32
				},
				{
					"input":7,
					"interpolation":"STEP",
					"output":33
				},
				{
					"input":7,
					"interpolation":"STEP",
					"output":34
				},
				{
					"input":7,
					"interpolation":"STEP",
					"output":35
				},
				{
					"input":7,
					"interpolation":"STEP",
					"output":36
				},
				{
					"input":7,
					"interpolation":"STEP",
					"output":37
				},
				{
					"input":7,
					"interpolation":"STEP",
					"output":38
				},
				{
					"input":7,
					"interpolation":"STEP",
					"output":39
				},
				{
					"input":7,
					"interpolation":"STEP",
					"output":40
				},
				{
					"input":7,
					"interpolation":"STEP",
					"output":41
				}
			]
		},
		{
			"channels":[
				{
					"sampler":0,
					"target":{
						"node":6,
						"path":"translation"
					}
				},
				{
					"sampler":1,
					"target":{
						"node":6,
						"path":"rotation"
					}
				},
				{
					"sampler":2,
					"target":{
						"node":6,
						"path":"scale"
					}
				},
				{
					"sampler":3,
					"target":{
						"node":2,
						"path":"translation"
					}
				},
				{
					"sampler":4,
					"target":{
						"node":2,
						"path":"rotation"
					}
				},
				{
					"sampler":5,
					"target":{
						"node":2,
						"path":"scale"
					}
				},
				{
					"sampler":6,
					"target":{
						"node":1,
						"path":"translation"
					}
				},
				{
					"sampler":7,
					"target":{
						"node":1,
						"path":"rotation"
					}
				},
				{
					"sampler":8,
					"target":{
						"node":1,
						"path":"scale"
					}
				},
				{
					"sampler":9,
					"target":{
						"node":0,
						"path":"translation"
					}
				},
				{
					"sampler":10,
					"target":{
						"node":0,
						"path":"rotation"
					}
				},
				{
					"sampler":11,
					"target":{
						"node":0,
						"path":"scale"
					}
				},
				{
					"sampler":12,
					"target":{
						"node":5,
						"path":"translation"
					}
				},
				{
					"sampler":13,
					"target":{
						"node":5,
						"path":"rotation"
					}
				},
				{
					"sampler":14,
					"target":{
						"node":5,
						"path":"scale"
					}
				},
				{
					"sampler":15,
					"target":{
						"node":4,
						"path":"translation"
					}
				},
				{
					"sampler":16,
					"target":{
						"node":4,
						"path":"rotation"
					}
				},
				{
					"sampler":17,
					"target":{
						"node":4,
						"path":"scale"
					}
				},
				{
					"sampler":18,
					"target":{
						"node":3,
						"path":"translation"
					}
				},
				{
					"sampler":19,
					"target":{
						"node":3,
						"path":"rotation"
					}
				},
				{
					"sampler":20,
					"target":{
						"node":3,
						"path":"scale"
					}
				},
				{
					"sampler":21,
					"target":{
						"node":8,
						"path":"translation"
					}
				},
				{
					"sampler":22,
					"target":{
						"node":8,
						"path":"rotation"
					}
				},
				{
					"sampler":23,
					"target":{
						"node":8,
						"path":"scale"
					}
				},
				{
					"sampler":24,
					"target":{
						"node":7,
						"path":"translation"
					}
				},
				{
					"sampler":25,
					"target":{
						"node":7,
						"path":"rotation"
					}
				},
				{
					"sampler":26,
					"target":{
						"node":7,
						"path":"scale"
					}
				},
				{
					"sampler":27,
					"target":{
						"node":10,
						"path":"translation"
					}
				},
				{
					"sampler":28,
					"target":{
						"node":10,
						"path":"rotation"
					}
				},
				{
					"sampler":29,
					"target":{
						"node":10,
						"path":"scale"
					}
				},
				{
					"sampler":30,
					"target":{
						"node":9,
						"path":"translation"
					}
				},
				{
					"sampler":31,
					"target":{
						"node":9,
						"path":"rotation"
					}
				},
				{
					"sampler":32,
					"target":{
						"node":9,
						"path":"scale"
					}
				}
			],
			"name":"Armature|mixamo.com|Layer0_Armature",
			"samplers":[
				{
					"input":42,
					"interpolation":"STEP",
					"output":43
				},
				{
					"input":42,
					"interpolation":"STEP",
					"output":44
				},
				{
					"input":42,
					"interpolation":"STEP",
					"output":45
				},
				{
					"input":42,
					"interpolation":"STEP",
					"output":46
				},
				{
					"input":42,
					"interpolation":"STEP",
					"output":47
				},
				{
					"input":42,
					"interpolation":"STEP",
					"output":48
				},
				{
					"input":42,
					"interpolation":"STEP",
					"output":49
				},
				{
					"input":42,
					"interpolation":"STEP",
					"output":50
				},
				{
					"input":42,
					"interpolation":"STEP",
					"output":51
				},
				{
					"input":42,
					"interpolation":"STEP",
					"output":52
				},
				{
					"input":42,
					"interpolation":"STEP",
					"output":53
				},
				{
					"input":42,
					"interpolation":"STEP",
					"output":54
				},
				{
					"input":42,
					"interpolation":"STEP",
					"output":55
				},
				{
					"input":42,
					"interpolation":"STEP",
					"output":56
				},
				{
					"input":42,
					"interpolation":"STEP",
					"output":57
				},
				{
					"input":42,
					"interpolation":"STEP",
					"output":58
				},
				{
					"input":42,
					"interpolation":"STEP",
					"output":59
				},
				{
					"input":42,
					"interpolation":"STEP",
					"output":60
				},
				{
					"input":42,
					"interpolation":"STEP",
					"output":61
				},
				{
					"input":42,
					"interpolation":"STEP",
					"output":62
				},
				{
					"input":42,
					"interpolation":"STEP",
					"output":63
				},
				{
					"input":42,
					"interpolation":"STEP",
					"output":64
				},
				{
					"input":42,
					"interpolation":"STEP",
					"output":65
				},
				{
					"input":42,
					"interpolation":"STEP",
					"output":66
				},
				{
					"input":42,
					"interpolation":"STEP",
					"output":67
				},
				{
					"input":42,
					"interpolation":"STEP",
					"output":68
				},
				{
					"input":42,
					"interpolation":"STEP",
					"output":69
				},
				{
					"input":42,
					"interpolation":"STEP",
					"output":70
				},
				{
					"input":42,
					"interpolation":"STEP",
					"output":71
				},
				{
					"input":42,
					"interpolation":"STEP",
					"output":72
				},
				{
					"input":42,
					"interpolation":"STEP",
					"output":73
				},
				{
					"input":42,
					"interpolation":"STEP",
					"output":74
				},
				{
					"input":42,
					"interpolation":"STEP",
					"output":75
				}
			]
		},
		{
			"channels":[
				{
					"sampler":0,
					"target":{
						"node":6,
						"path":"translation"
					}
				},
				{
					"sampler":1,
					"target":{
						"node":6,
						"path":"rotation"
					}
				},
				{
					"sampler":2,
					"target":{
						"node":6,
						"path":"scale"
					}
				},
				{
					"sampler":3,
					"target":{
						"node":2,
						"path":"translation"
					}
				},
				{
					"sampler":4,
					"target":{
						"node":2,
						"path":"rotation"
					}
				},
				{
					"sampler":5,
					"target":{
						"node":2,
						"path":"scale"
					}
				},
				{
					"sampler":6,
					"target":{
						"node":1,
						"path":"translation"
					}
				},
				{
					"sampler":7,
					"target":{
						"node":1,
						"path":"rotation"
					}
				},
				{
					"sampler":8,
					"target":{
						"node":1,
						"path":"scale"
					}
				},
				{
					"sampler":9,
					"target":{
						"node":0,
						"path":"translation"
					}
				},
				{
					"sampler":10,
					"target":{
						"node":0,
						"path":"rotation"
					}
				},
				{
					"sampler":11,
					"target":{
						"node":0,
						"path":"scale"
					}
				},
				{
					"sampler":12,
					"target":{
						"node":5,
						"path":"translation"
					}
				},
				{
					"sampler":13,
					"target":{
						"node":5,
						"path":"rotation"
					}
				},
				{
					"sampler":14,
					"target":{
						"node":5,
						"path":"scale"
					}
				},
				{
					"sampler":15,
					"target":{
						"node":4,
						"path":"translation"
					}
				},
				{
					"sampler":16,
					"target":{
						"node":4,
						"path":"rotation"
					}
				},
				{
					"sampler":17,
					"target":{
						"node":4,
						"path":"scale"
					}
				},
				{
					"sampler":18,
					"target":{
						"node":3,
						"path":"translation"
					}
				},
				{
					"sampler":19,
					"target":{
						"node":3,
						"path":"rotation"
					}
				},
				{
					"sampler":20,
					"target":{
						"node":3,
						"path":"scale"
					}
				},
				{
					"sampler":21,
					"target":{
						"node":8,
						"path":"translation"
					}
				},
				{
					"sampler":22,
					"target":{
						"node":8,
						"path":"rotation"
					}
				},
				{
					"sampler":23,
					"target":{
						"node":8,
						"path":"scale"
					}
				},
				{
					"sampler":24,
					"target":{
						"node":7,
						"path":"translation"
					}
				},
				{
					"sampler":25,
					"target":{
						"node":7,
						"path":"rotation"
					}
				},
				{
					"sampler":26,
					"target":{
						"node":7,
						"path":"scale"
					}
				},
				{
					"sampler":27,
					"target":{
						"node":10,
						"path":"translation"
					}
				},
				{
					"sampler":28,
					"target":{
						"node":10,
						"path":"rotation"
					}
				},
				{
					"sampler":29,
					"target":{
						"node":10,
						"path":"scale"
					}
				},
				{
					"sampler":30,
					"target":{
						"node":9,
						"path":"translation"
					}
				},
				{
					"sampler":31,
					"target":{
						"node":9,
						"path":"rotation"
					}
				},
				{
					"sampler":32,
					"target":{
						"node":9,
						"path":"scale"
					}
				}
			],
			"name":"\u30c7\u30d5\u30a9\u30eb\u30c8",
			"samplers":[
				{
					"input":12,
					"interpolation":"LINEAR",
					"output":76
				},
				{
					"input":7,
					"interpolation":"STEP",
					"output":77
				},
				{
					"input":7,
					"interpolation":"STEP",
					"output":78
				},
				{
					"input":7,
					"interpolation":"STEP",
					"output":79
				},
				{
					"input":12,
					"interpolation":"LINEAR",
					"output":80
				},
				{
					"input":7,
					"interpolation":"STEP",
					"output":81
				},
				{
					"input":7,
					"interpolation":"STEP",
					"output":82
				},
				{
					"input":7,
					"interpolation":"STEP",
					"output":83
				},
				{
					"input":7,
					"interpolation":"STEP",
					"output":84
				},
				{
					"input":7,
					"interpolation":"STEP",
					"output":85
				},
				{
					"input":7,
					"interpolation":"STEP",
					"output":86
				},
				{
					"input":7,
					"interpolation":"STEP",
					"output":87
				},
				{
					"input":7,
					"interpolation":"STEP",
					"output":88
				},
				{
					"input":12,
					"interpolation":"LINEAR",
					"output":89
				},
				{
					"input":7,
					"interpolation":"STEP",
					"output":90
				},
				{
					"input":7,
					"interpolation":"STEP",
					"output":91
				},
				{
					"input":7,
					"interpolation":"STEP",
					"output":92
				},
				{
					"input":7,
					"interpolation":"STEP",
					"output":93
				},
				{
					"input":7,
					"interpolation":"STEP",
					"output":94
				},
				{
					"input":7,
					"interpolation":"STEP",
					"output":95
				},
				{
					"input":7,
					"interpolation":"STEP",
					"output":96
				},
				{
					"input":7,
					"interpolation":"STEP",
					"output":97
				},
				{
					"input":7,
					"interpolation":"STEP",
					"output":98
				},
				{
					"input":7,
					"interpolation":"STEP",
					"output":99
				},
				{
					"input":7,
					"interpolation":"STEP",
					"output":100
				},
				{
					"input":7,
					"interpolation":"STEP",
					"output":101
				},
				{
					"input":7,
					"interpolation":"STEP",
					"output":102
				},
				{
					"input":7,
					"interpolation":"STEP",
					"output":103
				},
				{
					"input":7,
					"interpolation":"STEP",
					"output":104
				},
				{
					"input":7,
					"interpolation":"STEP",
					"output":105
				},
				{
					"input":7,
					"interpolation":"STEP",
					"output":106
				},
				{
					"input":7,
					"interpolation":"STEP",
					"output":107
				},
				{
					"input":7,
					"interpolation":"STEP",
					"output":108
				}
			]
		},
		{
			"channels":[
				{
					"sampler":0,
					"target":{
						"node":6,
						"path":"translation"
					}
				},
				{
					"sampler":1,
					"target":{
						"node":6,
						"path":"rotation"
					}
				},
				{
					"sampler":2,
					"target":{
						"node":6,
						"path":"scale"
					}
				},
				{
					"sampler":3,
					"target":{
						"node":2,
						"path":"translation"
					}
				},
				{
					"sampler":4,
					"target":{
						"node":2,
						"path":"rotation"
					}
				},
				{
					"sampler":5,
					"target":{
						"node":2,
						"path":"scale"
					}
				},
				{
					"sampler":6,
					"target":{
						"node":1,
						"path":"translation"
					}
				},
				{
					"sampler":7,
					"target":{
						"node":1,
						"path":"rotation"
					}
				},
				{
					"sampler":8,
					"target":{
						"node":1,
						"path":"scale"
					}
				},
				{
					"sampler":9,
					"target":{
						"node":0,
						"path":"translation"
					}
				},
				{
					"sampler":10,
					"target":{
						"node":0,
						"path":"rotation"
					}
				},
				{
					"sampler":11,
					"target":{
						"node":0,
						"path":"scale"
					}
				},
				{
					"sampler":12,
					"target":{
						"node":5,
						"path":"translation"
					}
				},
				{
					"sampler":13,
					"target":{
						"node":5,
						"path":"rotation"
					}
				},
				{
					"sampler":14,
					"target":{
						"node":5,
						"path":"scale"
					}
				},
				{
					"sampler":15,
					"target":{
						"node":4,
						"path":"translation"
					}
				},
				{
					"sampler":16,
					"target":{
						"node":4,
						"path":"rotation"
					}
				},
				{
					"sampler":17,
					"target":{
						"node":4,
						"path":"scale"
					}
				},
				{
					"sampler":18,
					"target":{
						"node":3,
						"path":"translation"
					}
				},
				{
					"sampler":19,
					"target":{
						"node":3,
						"path":"rotation"
					}
				},
				{
					"sampler":20,
					"target":{
						"node":3,
						"path":"scale"
					}
				},
				{
					"sampler":21,
					"target":{
						"node":8,
						"path":"translation"
					}
				},
				{
					"sampler":22,
					"target":{
						"node":8,
						"path":"rotation"
					}
				},
				{
					"sampler":23,
					"target":{
						"node":8,
						"path":"scale"
					}
				},
				{
					"sampler":24,
					"target":{
						"node":7,
						"path":"translation"
					}
				},
				{
					"sampler":25,
					"target":{
						"node":7,
						"path":"rotation"
					}
				},
				{
					"sampler":26,
					"target":{
						"node":7,
						"path":"scale"
					}
				},
				{
					"sampler":27,
					"target":{
						"node":10,
						"path":"translation"
					}
				},
				{
					"sampler":28,
					"target":{
						"node":10,
						"path":"rotation"
					}
				},
				{
					"sampler":29,
					"target":{
						"node":10,
						"path":"scale"
					}
				},
				{
					"sampler":30,
					"target":{
						"node":9,
						"path":"translation"
					}
				},
				{
					"sampler":31,
					"target":{
						"node":9,
						"path":"rotation"
					}
				},
				{
					"sampler":32,
					"target":{
						"node":9,
						"path":"scale"
					}
				}
			],
			"name":"\u30c7\u30d5\u30a9\u30eb\u30c8.001",
			"samplers":[
				{
					"input":109,
					"interpolation":"LINEAR",
					"output":110
				},
				{
					"input":109,
					"interpolation":"LINEAR",
					"output":111
				},
				{
					"input":109,
					"interpolation":"LINEAR",
					"output":112
				},
				{
					"input":109,
					"interpolation":"LINEAR",
					"output":113
				},
				{
					"input":109,
					"interpolation":"LINEAR",
					"output":114
				},
				{
					"input":109,
					"interpolation":"LINEAR",
					"output":115
				},
				{
					"input":109,
					"interpolation":"LINEAR",
					"output":116
				},
				{
					"input":109,
					"interpolation":"LINEAR",
					"output":117
				},
				{
					"input":109,
					"interpolation":"LINEAR",
					"output":118
				},
				{
					"input":109,
					"interpolation":"LINEAR",
					"output":119
				},
				{
					"input":109,
					"interpolation":"LINEAR",
					"output":120
				},
				{
					"input":109,
					"interpolation":"LINEAR",
					"output":121
				},
				{
					"input":109,
					"interpolation":"LINEAR",
					"output":122
				},
				{
					"input":109,
					"interpolation":"LINEAR",
					"output":123
				},
				{
					"input":109,
					"interpolation":"LINEAR",
					"output":124
				},
				{
					"input":109,
					"interpolation":"LINEAR",
					"output":125
				},
				{
					"input":109,
					"interpolation":"LINEAR",
					"output":126
				},
				{
					"input":109,
					"interpolation":"LINEAR",
					"output":127
				},
				{
					"input":109,
					"interpolation":"LINEAR",
					"output":128
				},
				{
					"input":109,
					"interpolation":"LINEAR",
					"output":129
				},
				{
					"input":109,
					"interpolation":"LINEAR",
					"output":130
				},
				{
					"input":109,
					"interpolation":"LINEAR",
					"output":131
				},
				{
					"input":109,
					"interpolation":"LINEAR",
					"output":132
				},
				{
					"input":109,
					"interpolation":"LINEAR",
					"output":133
				},
				{
					"input":109,
					"interpolation":"LINEAR",
					"output":134
				},
				{
					"input":109,
					"interpolation":"LINEAR",
					"output":135
				},
				{
					"input":109,
					"interpolation":"LINEAR",
					"output":136
				},
				{
					"input":109,
					"interpolation":"LINEAR",
					"output":137
				},
				{
					"input":109,
					"interpolation":"LINEAR",
					"output":138
				},
				{
					"input":109,
					"interpolation":"LINEAR",
					"output":139
				},
				{
					"input":109,
					"interpolation":"LINEAR",
					"output":140
				},
				{
					"input":109,
					"interpolation":"LINEAR",
					"output":141
				},
				{
					"input":109,
					"interpolation":"LINEAR",
					"output":142
				}
			]
		},
		{
			"channels":[
				{
					"sampler":0,
					"target":{
						"node":6,
						"path":"translation"
					}
				},
				{
					"sampler":1,
					"target":{
						"node":6,
						"path":"rotation"
					}
				},
				{
					"sampler":2,
					"target":{
						"node":6,
						"path":"scale"
					}
				},
				{
					"sampler":3,
					"target":{
						"node":2,
						"path":"translation"
					}
				},
				{
					"sampler":4,
					"target":{
						"node":2,
						"path":"rotation"
					}
				},
				{
					"sampler":5,
					"target":{
						"node":2,
						"path":"scale"
					}
				},
				{
					"sampler":6,
					"target":{
						"node":1,
						"path":"translation"
					}
				},
				{
					"sampler":7,
					"target":{
						"node":1,
						"path":"rotation"
					}
				},
				{
					"sampler":8,
					"target":{
						"node":1,
						"path":"scale"
					}
				},
				{
					"sampler":9,
					"target":{
						"node":0,
						"path":"translation"
					}
				},
				{
					"sampler":10,
					"target":{
						"node":0,
						"path":"rotation"
					}
				},
				{
					"sampler":11,
					"target":{
						"node":0,
						"path":"scale"
					}
				},
				{
					"sampler":12,
					"target":{
						"node":5,
						"path":"translation"
					}
				},
				{
					"sampler":13,
					"target":{
						"node":5,
						"path":"rotation"
					}
				},
				{
					"sampler":14,
					"target":{
						"node":5,
						"path":"scale"
					}
				},
				{
					"sampler":15,
					"target":{
						"node":4,
						"path":"translation"
					}
				},
				{
					"sampler":16,
					"target":{
						"node":4,
						"path":"rotation"
					}
				},
				{
					"sampler":17,
					"target":{
						"node":4,
						"path":"scale"
					}
				},
				{
					"sampler":18,
					"target":{
						"node":3,
						"path":"translation"
					}
				},
				{
					"sampler":19,
					"target":{
						"node":3,
						"path":"rotation"
					}
				},
				{
					"sampler":20,
					"target":{
						"node":3,
						"path":"scale"
					}
				},
				{
					"sampler":21,
					"target":{
						"node":8,
						"path":"translation"
					}
				},
				{
					"sampler":22,
					"target":{
						"node":8,
						"path":"rotation"
					}
				},
				{
					"sampler":23,
					"target":{
						"node":8,
						"path":"scale"
					}
				},
				{
					"sampler":24,
					"target":{
						"node":7,
						"path":"translation"
					}
				},
				{
					"sampler":25,
					"target":{
						"node":7,
						"path":"rotation"
					}
				},
				{
					"sampler":26,
					"target":{
						"node":7,
						"path":"scale"
					}
				},
				{
					"sampler":27,
					"target":{
						"node":10,
						"path":"translation"
					}
				},
				{
					"sampler":28,
					"target":{
						"node":10,
						"path":"rotation"
					}
				},
				{
					"sampler":29,
					"target":{
						"node":10,
						"path":"scale"
					}
				},
				{
					"sampler":30,
					"target":{
						"node":9,
						"path":"translation"
					}
				},
				{
					"sampler":31,
					"target":{
						"node":9,
						"path":"rotation"
					}
				},
				{
					"sampler":32,
					"target":{
						"node":9,
						"path":"scale"
					}
				}
			],
			"name":"\u30c7\u30d5\u30a9\u30eb\u30c8.002",
			"samplers":[
				{
					"input":12,
					"interpolation":"LINEAR",
					"output":143
				},
				{
					"input":7,
					"interpolation":"STEP",
					"output":144
				},
				{
					"input":7,
					"interpolation":"STEP",
					"output":145
				},
				{
					"input":7,
					"interpolation":"STEP",
					"output":146
				},
				{
					"input":12,
					"interpolation":"LINEAR",
					"output":147
				},
				{
					"input":7,
					"interpolation":"STEP",
					"output":148
				},
				{
					"input":7,
					"interpolation":"STEP",
					"output":149
				},
				{
					"input":7,
					"interpolation":"STEP",
					"output":150
				},
				{
					"input":7,
					"interpolation":"STEP",
					"output":151
				},
				{
					"input":7,
					"interpolation":"STEP",
					"output":152
				},
				{
					"input":7,
					"interpolation":"STEP",
					"output":153
				},
				{
					"input":7,
					"interpolation":"STEP",
					"output":154
				},
				{
					"input":7,
					"interpolation":"STEP",
					"output":155
				},
				{
					"input":12,
					"interpolation":"LINEAR",
					"output":156
				},
				{
					"input":7,
					"interpolation":"STEP",
					"output":157
				},
				{
					"input":7,
					"interpolation":"STEP",
					"output":158
				},
				{
					"input":7,
					"interpolation":"STEP",
					"output":159
				},
				{
					"input":7,
					"interpolation":"STEP",
					"output":160
				},
				{
					"input":7,
					"interpolation":"STEP",
					"output":161
				},
				{
					"input":7,
					"interpolation":"STEP",
					"output":162
				},
				{
					"input":7,
					"interpolation":"STEP",
					"output":163
				},
				{
					"input":7,
					"interpolation":"STEP",
					"output":164
				},
				{
					"input":7,
					"interpolation":"STEP",
					"output":165
				},
				{
					"input":7,
					"interpolation":"STEP",
					"output":166
				},
				{
					"input":7,
					"interpolation":"STEP",
					"output":167
				},
				{
					"input":7,
					"interpolation":"STEP",
					"output":168
				},
				{
					"input":7,
					"interpolation":"STEP",
					"output":169
				},
				{
					"input":7,
					"interpolation":"STEP",
					"output":170
				},
				{
					"input":7,
					"interpolation":"STEP",
					"output":171
				},
				{
					"input":7,
					"interpolation":"STEP",
					"output":172
				},
				{
					"input":7,
					"interpolation":"STEP",
					"output":173
				},
				{
					"input":7,
					"interpolation":"STEP",
					"output":174
				},
				{
					"input":7,
					"interpolation":"STEP",
					"output":175
				}
			]
		}
	],
	"materials":[
		{
			"doubleSided":true,
			"name":"\u30de\u30c6\u30ea\u30a2\u30eb",
			"pbrMetallicRoughness":{
				"baseColorTexture":{
					"index":0
				},
				"metallicFactor":0,
				"roughnessFactor":0.5
			}
		}
	],
	"meshes":[
		{
			"name":"\u7403.010",
			"primitives":[
				{
					"attributes":{
						"POSITION":0,
						"NORMAL":1,
						"TEXCOORD_0":2,
						"JOINTS_0":3,
						"WEIGHTS_0":4
					},
					"indices":5,
					"material":0
				}
			]
		}
	],
	"textures":[
		{
			"sampler":0,
			"source":0
		}
	],
	"images":[
		{
			"mimeType":"image/png",
			"name":"white",
			"uri":"white.png"
		}
	],
	"skins":[
		{
			"inverseBindMatrices":6,
			"joints":[
				6,
				2,
				1,
				0,
				5,
				4,
				3,
				8,
				7,
				10,
				9
			],
			"name":"\u30a2\u30fc\u30de\u30c1\u30e5\u30a2.003"
		}
	],
	"accessors":[
		{
			"bufferView":0,
			"componentType":5126,
			"count":8768,
			"max":[
				1.3644053936004639,
				1.470102310180664,
				0.774610161781311
			],
			"min":[
				-1.3644053936004639,
				-0.3548338711261749,
				-0.7746096253395081
			],
			"type":"VEC3"
		},
		{
			"bufferView":1,
			"componentType":5126,
			"count":8768,
			"type":"VEC3"
		},
		{
			"bufferView":2,
			"componentType":5126,
			"count":8768,
			"type":"VEC2"
		},
		{
			"bufferView":3,
			"componentType":5121,
			"count":8768,
			"type":"VEC4"
		},
		{
			"bufferView":4,
			"componentType":5126,
			"count":8768,
			"type":"VEC4"
		},
		{
			"bufferView":5,
			"componentType":5123,
			"count":13188,
			"type":"SCALAR"
		},
		{
			"bufferView":6,
			"componentType":5126,
			"count":11,
			"type":"MAT4"
		},
		{
			"bufferView":7,
			"componentType":5126,
			"count":2,
			"max":[
				1.6666666666666667
			],
			"min":[
				0
			],
			"type":"SCALAR"
		},
		{
			"bufferView":8,
			"componentType":5126,
			"count":2,
			"type":"VEC3"
		},
		{
			"bufferView":9,
			"componentType":5126,
			"count":2,
			"type":"VEC4"
		},
		{
			"bufferView":10,
			"componentType":5126,
			"count":2,
			"type":"VEC3"
		},
		{
			"bufferView":11,
			"componentType":5126,
			"count":2,
			"type":"VEC3"
		},
		{
			"bufferView":12,
			"componentType":5126,
			"count":41,
			"max":[
				1.6666666666666667
			],
			"min":[
				0
			],
			"type":"SCALAR"
		},
		{
			"bufferView":13,
			"componentType":5126,
			"count":41,
			"type":"VEC4"
		},
		{
			"bufferView":14,
			"componentType":5126,
			"count":2,
			"type":"VEC3"
		},
		{
			"bufferView":15,
			"componentType":5126,
			"count":2,
			"type":"VEC3"
		},
		{
			"bufferView":16,
			"componentType":5126,
			"count":2,
			"type":"VEC4"
		},
		{
			"bufferView":17,
			"componentType":5126,
			"count":2,
			"type":"VEC3"
		},
		{
			"bufferView":18,
			"componentType":5126,
			"count":2,
			"type":"VEC3"
		},
		{
			"bufferView":19,
			"componentType":5126,
			"count":2,
			"type":"VEC4"
		},
		{
			"bufferView":20,
			"componentType":5126,
			"count":2,
			"type":"VEC3"
		},
		{
			"bufferView":21,
			"componentType":5126,
			"count":2,
			"type":"VEC3"
		},
		{
			"bufferView":22,
			"componentType":5126,
			"count":41,
			"type":"VEC4"
		},
		{
			"bufferView":23,
			"componentType":5126,
			"count":2,
			"type":"VEC3"
		},
		{
			"bufferView":24,
			"componentType":5126,
			"count":2,
			"type":"VEC3"
		},
		{
			"bufferView":25,
			"componentType":5126,
			"count":2,
			"type":"VEC4"
		},
		{
			"bufferView":26,
			"componentType":5126,
			"count":2,
			"type":"VEC3"
		},
		{
			"bufferView":27,
			"componentType":5126,
			"count":2,
			"type":"VEC3"
		},
		{
			"bufferView":28,
			"componentType":5126,
			"count":2,
			"type":"VEC4"
		},
		{
			"bufferView":29,
			"componentType":5126,
			"count":2,
			"type":"VEC3"
		},
		{
			"bufferView":30,
			"componentType":5126,
			"count":2,
			"type":"VEC3"
		},
		{
			"bufferView":31,
			"componentType":5126,
			"count":2,
			"type":"VEC4"
		},
		{
			"bufferView":32,
			"componentType":5126,
			"count":2,
			"type":"VEC3"
		},
		{
			"bufferView":33,
			"componentType":5126,
			"count":2,
			"type":"VEC3"
		},
		{
			"bufferView":34,
			"componentType":5126,
			"count":2,
			"type":"VEC4"
		},
		{
			"bufferView":35,
			"componentType":5126,
			"count":2,
			"type":"VEC3"
		},
		{
			"bufferView":36,
			"componentType":5126,
			"count":2,
			"type":"VEC3"
		},
		{
			"bufferView":37,
			"componentType":5126,
			"count":2,
			"type":"VEC4"
		},
		{
			"bufferView":38,
			"componentType":5126,
			"count":2,
			"type":"VEC3"
		},
		{
			"bufferView":39,
			"componentType":5126,
			"count":2,
			"type":"VEC3"
		},
		{
			"bufferView":40,
			"componentType":5126,
			"count":2,
			"type":"VEC4"
		},
		{
			"bufferView":41,
			"componentType":5126,
			"count":2,
			"type":"VEC3"
		},
		{
			"bufferView":42,
			"componentType":5126,
			"count":2,
			"max":[
				1
			],
			"min":[
				0
			],
			"type":"SCALAR"
		},
		{
			"bufferView":43,
			"componentType":5126,
			"count":2,
			"type":"VEC3"
		},
		{
			"bufferView":44,
			"componentType":5126,
			"count":2,
			"type":"VEC4"
		},
		{
			"bufferView":45,
			"componentType":5126,
			"count":2,
			"type":"VEC3"
		},
		{
			"bufferView":46,
			"componentType":5126,
			"count":2,
			"type":"VEC3"
		},
		{
			"bufferView":47,
			"componentType":5126,
			"count":2,
			"type":"VEC4"
		},
		{
			"bufferView":48,
			"componentType":5126,
			"count":2,
			"type":"VEC3"
		},
		{
			"bufferView":49,
			"componentType":5126,
			"count":2,
			"type":"VEC3"
		},
		{
			"bufferView":50,
			"componentType":5126,
			"count":2,
			"type":"VEC4"
		},
		{
			"bufferView":51,
			"componentType":5126,
			"count":2,
			"type":"VEC3"
		},
		{
			"bufferView":52,
			"componentType":5126,
			"count":2,
			"type":"VEC3"
		},
		{
			"bufferView":53,
			"componentType":5126,
			"count":2,
			"type":"VEC4"
		},
		{
			"bufferView":54,
			"componentType":5126,
			"count":2,
			"type":"VEC3"
		},
		{
			"bufferView":55,
			"componentType":5126,
			"count":2,
			"type":"VEC3"
		},
		{
			"bufferView":56,
			"componentType":5126,
			"count":2,
			"type":"VEC4"
		},
		{
			"bufferView":57,
			"componentType":5126,
			"count":2,
			"type":"VEC3"
		},
		{
			"bufferView":58,
			"componentType":5126,
			"count":2,
			"type":"VEC3"
		},
		{
			"bufferView":59,
			"componentType":5126,
			"count":2,
			"type":"VEC4"
		},
		{
			"bufferView":60,
			"componentType":5126,
			"count":2,
			"type":"VEC3"
		},
		{
			"bufferView":61,
			"componentType":5126,
			"count":2,
			"type":"VEC3"
		},
		{
			"bufferView":62,
			"componentType":5126,
			"count":2,
			"type":"VEC4"
		},
		{
			"bufferView":63,
			"componentType":5126,
			"count":2,
			"type":"VEC3"
		},
		{
			"bufferView":64,
			"componentType":5126,
			"count":2,
			"type":"VEC3"
		},
		{
			"bufferView":65,
			"componentType":5126,
			"count":2,
			"type":"VEC4"
		},
		{
			"bufferView":66,
			"componentType":5126,
			"count":2,
			"type":"VEC3"
		},
		{
			"bufferView":67,
			"componentType":5126,
			"count":2,
			"type":"VEC3"
		},
		{
			"bufferView":68,
			"componentType":5126,
			"count":2,
			"type":"VEC4"
		},
		{
			"bufferView":69,
			"componentType":5126,
			"count":2,
			"type":"VEC3"
		},
		{
			"bufferView":70,
			"componentType":5126,
			"count":2,
			"type":"VEC3"
		},
		{
			"bufferView":71,
			"componentType":5126,
			"count":2,
			"type":"VEC4"
		},
		{
			"bufferView":72,
			"componentType":5126,
			"count":2,
			"type":"VEC3"
		},
		{
			"bufferView":73,
			"componentType":5126,
			"count":2,
			"type":"VEC3"
		},
		{
			"bufferView":74,
			"componentType":5126,
			"count":2,
			"type":"VEC4"
		},
		{
			"bufferView":75,
			"componentType":5126,
			"count":2,
			"type":"VEC3"
		},
		{
			"bufferView":76,
			"componentType":5126,
			"count":41,
			"type":"VEC3"
		},
		{
			"bufferView":77,
			"componentType":5126,
			"count":2,
			"type":"VEC4"
		},
		{
			"bufferView":78,
			"componentType":5126,
			"count":2,
			"type":"VEC3"
		},
		{
			"bufferView":79,
			"componentType":5126,
			"count":2,
			"type":"VEC3"
		},
		{
			"bufferView":80,
			"componentType":5126,
			"count":41,
			"type":"VEC4"
		},
		{
			"bufferView":81,
			"componentType":5126,
			"count":2,
			"type":"VEC3"
		},
		{
			"bufferView":82,
			"componentType":5126,
			"count":2,
			"type":"VEC3"
		},
		{
			"bufferView":83,
			"componentType":5126,
			"count":2,
			"type":"VEC4"
		},
		{
			"bufferView":84,
			"componentType":5126,
			"count":2,
			"type":"VEC3"
		},
		{
			"bufferView":85,
			"componentType":5126,
			"count":2,
			"type":"VEC3"
		},
		{
			"bufferView":86,
			"componentType":5126,
			"count":2,
			"type":"VEC4"
		},
		{
			"bufferView":87,
			"componentType":5126,
			"count":2,
			"type":"VEC3"
		},
		{
			"bufferView":88,
			"componentType":5126,
			"count":2,
			"type":"VEC3"
		},
		{
			"bufferView":89,
			"componentType":5126,
			"count":41,
			"type":"VEC4"
		},
		{
			"bufferView":90,
			"componentType":5126,
			"count":2,
			"type":"VEC3"
		},
		{
			"bufferView":91,
			"componentType":5126,
			"count":2,
			"type":"VEC3"
		},
		{
			"bufferView":92,
			"componentType":5126,
			"count":2,
			"type":"VEC4"
		},
		{
			"bufferView":93,
			"componentType":5126,
			"count":2,
			"type":"VEC3"
		},
		{
			"bufferView":94,
			"componentType":5126,
			"count":2,
			"type":"VEC3"
		},
		{
			"bufferView":95,
			"componentType":5126,
			"count":2,
			"type":"VEC4"
		},
		{
			"bufferView":96,
			"componentType":5126,
			"count":2,
			"type":"VEC3"
		},
		{
			"bufferView":97,
			"componentType":5126,
			"count":2,
			"type":"VEC3"
		},
		{
			"bufferView":98,
			"componentType":5126,
			"count":2,
			"type":"VEC4"
		},
		{
			"bufferView":99,
			"componentType":5126,
			"count":2,
			"type":"VEC3"
		},
		{
			"bufferView":100,
			"componentType":5126,
			"count":2,
			"type":"VEC3"
		},
		{
			"bufferView":101,
			"componentType":5126,
			"count":2,
			"type":"VEC4"
		},
		{
			"bufferView":102,
			"componentType":5126,
			"count":2,
			"type":"VEC3"
		},
		{
			"bufferView":103,
			"componentType":5126,
			"count":2,
			"type":"VEC3"
		},
		{
			"bufferView":104,
			"componentType":5126,
			"count":2,
			"type":"VEC4"
		},
		{
			"bufferView":105,
			"componentType":5126,
			"count":2,
			"type":"VEC3"
		},
		{
			"bufferView":106,
			"componentType":5126,
			"count":2,
			"type":"VEC3"
		},
		{
			"bufferView":107,
			"componentType":5126,
			"count":2,
			"type":"VEC4"
		},
		{
			"bufferView":108,
			"componentType":5126,
			"count":2,
			"type":"VEC3"
		},
		{
			"bufferView":109,
			"componentType":5126,
			"count":1,
			"max":[
				0
			],
			"min":[
				0
			],
			"type":"SCALAR"
		},
		{
			"bufferView":110,
			"componentType":5126,
			"count":1,
			"type":"VEC3"
		},
		{
			"bufferView":111,
			"componentType":5126,
			"count":1,
			"type":"VEC4"
		},
		{
			"bufferView":112,
			"componentType":5126,
			"count":1,
			"type":"VEC3"
		},
		{
			"bufferView":113,
			"componentType":5126,
			"count":1,
			"type":"VEC3"
		},
		{
			"bufferView":114,
			"componentType":5126,
			"count":1,
			"type":"VEC4"
		},
		{
			"bufferView":115,
			"componentType":5126,
			"count":1,
			"type":"VEC3"
		},
		{
			"bufferView":116,
			"componentType":5126,
			"count":1,
			"type":"VEC3"
		},
		{
			"bufferView":117,
			"componentType":5126,
			"count":1,
			"type":"VEC4"
		},
		{
			"bufferView":118,
			"componentType":5126,
			"count":1,
			"type":"VEC3"
		},
		{
			"bufferView":119,
			"componentType":5126,
			"count":1,
			"type":"VEC3"
		},
		{
			"bufferView":120,
			"componentType":5126,
			"count":1,
			"type":"VEC4"
		},
		{
			"bufferView":121,
			"componentType":5126,
			"count":1,
			"type":"VEC3"
		},
		{
			"bufferView":122,
			"componentType":5126,
			"count":1,
			"type":"VEC3"
		},
		{
			"bufferView":123,
			"componentType":5126,
			"count":1,
			"type":"VEC4"
		},
		{
			"bufferView":124,
			"componentType":5126,
			"count":1,
			"type":"VEC3"
		},
		{
			"bufferView":125,
			"componentType":5126,
			"count":1,
			"type":"VEC3"
		},
		{
			"bufferView":126,
			"componentType":5126,
			"count":1,
			"type":"VEC4"
		},
		{
			"bufferView":127,
			"componentType":5126,
			"count":1,
			"type":"VEC3"
		},
		{
			"bufferView":128,
			"componentType":5126,
			"count":1,
			"type":"VEC3"
		},
		{
			"bufferView":129,
			"componentType":5126,
			"count":1,
			"type":"VEC4"
		},
		{
			"bufferView":130,
			"componentType":5126,
			"count":1,
			"type":"VEC3"
		},
		{
			"bufferView":131,
			"componentType":5126,
			"count":1,
			"type":"VEC3"
		},
		{
			"bufferView":132,
			"componentType":5126,
			"count":1,
			"type":"VEC4"
		},
		{
			"bufferView":133,
			"componentType":5126,
			"count":1,
			"type":"VEC3"
		},
		{
			"bufferView":134,
			"componentType":5126,
			"count":1,
			"type":"VEC3"
		},
		{
			"bufferView":135,
			"componentType":5126,
			"count":1,
			"type":"VEC4"
		},
		{
			"bufferView":136,
			"componentType":5126,
			"count":1,
			"type":"VEC3"
		},
		{
			"bufferView":137,
			"componentType":5126,
			"count":1,
			"type":"VEC3"
		},
		{
			"bufferView":138,
			"componentType":5126,
			"count":1,
			"type":"VEC4"
		},
		{
			"bufferView":139,
			"componentType":5126,
			"count":1,
			"type":"VEC3"
		},
		{
			"bufferView":140,
			"componentType":5126,
			"count":1,
			"type":"VEC3"
		},
		{
			"bufferView":141,
			"componentType":5126,
			"count":1,
			"type":"VEC4"
		},
		{
			"bufferView":142,
			"componentType":5126,
			"count":1,
			"type":"VEC3"
		},
		{
			"bufferView":143,
			"componentType":5126,
			"count":41,
			"type":"VEC3"
		},
		{
			"bufferView":144,
			"componentType":5126,
			"count":2,
			"type":"VEC4"
		},
		{
			"bufferView":145,
			"componentType":5126,
			"count":2,
			"type":"VEC3"
		},
		{
			"bufferView":146,
			"componentType":5126,
			"count":2,
			"type":"VEC3"
		},
		{
			"bufferView":147,
			"componentType":5126,
			"count":41,
			"type":"VEC4"
		},
		{
			"bufferView":148,
			"componentType":5126,
			"count":2,
			"type":"VEC3"
		},
		{
			"bufferView":149,
			"componentType":5126,
			"count":2,
			"type":"VEC3"
		},
		{
			"bufferView":150,
			"componentType":5126,
			"count":2,
			"type":"VEC4"
		},
		{
			"bufferView":151,
			"componentType":5126,
			"count":2,
			"type":"VEC3"
		},
		{
			"bufferView":152,
			"componentType":5126,
			"count":2,
			"type":"VEC3"
		},
		{
			"bufferView":153,
			"componentType":5126,
			"count":2,
			"type":"VEC4"
		},
		{
			"bufferView":154,
			"componentType":5126,
			"count":2,
			"type":"VEC3"
		},
		{
			"bufferView":155,
			"componentType":5126,
			"count":2,
			"type":"VEC3"
		},
		{
			"bufferView":156,
			"componentType":5126,
			"count":41,
			"type":"VEC4"
		},
		{
			"bufferView":157,
			"componentType":5126,
			"count":2,
			"type":"VEC3"
		},
		{
			"bufferView":158,
			"componentType":5126,
			"count":2,
			"type":"VEC3"
		},
		{
			"bufferView":159,
			"componentType":5126,
			"count":2,
			"type":"VEC4"
		},
		{
			"bufferView":160,
			"componentType":5126,
			"count":2,
			"type":"VEC3"
		},
		{
			"bufferView":161,
			"componentType":5126,
			"count":2,
			"type":"VEC3"
		},
		{
			"bufferView":162,
			"componentType":5126,
			"count":2,
			"type":"VEC4"
		},
		{
			"bufferView":163,
			"componentType":5126,
			"count":2,
			"type":"VEC3"
		},
		{
			"bufferView":164,
			"componentType":5126,
			"count":2,
			"type":"VEC3"
		},
		{
			"bufferView":165,
			"componentType":5126,
			"count":2,
			"type":"VEC4"
		},
		{
			"bufferView":166,
			"componentType":5126,
			"count":2,
			"type":"VEC3"
		},
		{
			"bufferView":167,
			"componentType":5126,
			"count":2,
			"type":"VEC3"
		},
		{
			"bufferView":168,
			"componentType":5126,
			"count":2,
			"type":"VEC4"
		},
		{
			"bufferView":169,
			"componentType":5126,
			"count":2,
			"type":"VEC3"
		},
		{
			"bufferView":170,
			"componentType":5126,
			"count":2,
			"type":"VEC3"
		},
		{
			"bufferView":171,
			"componentType":5126,
			"count":2,
			"type":"VEC4"
		},
		{
			"bufferView":172,
			"componentType":5126,
			"count":2,
			"type":"VEC3"
		},
		{
			"bufferView":173,
			"componentType":5126,
			"count":2,
			"type":"VEC3"
		},
		{
			"bufferView":174,
			"componentType":5126,
			"count":2,
			"type":"VEC4"
		},
		{
			"bufferView":175,
			"componentType":5126,
			"count":2,
			"type":"VEC3"
		}
	],
	"bufferViews":[
		{
			"buffer":0,
			"byteLength":105216,
			"byteOffset":0,
			"target":34962
		},
		{
			"buffer":0,
			"byteLength":105216,
			"byteOffset":105216,
			"target":34962
		},
		{
			"buffer":0,
			"byteLength":70144,
			"byteOffset":210432,
			"target":34962
		},
		{
			"buffer":0,
			"byteLength":35072,
			"byteOffset":280576,
			"target":34962
		},
		{
			"buffer":0,
			"byteLength":140288,
			"byteOffset":315648,
			"target":34962
		},
		{
			"buffer":0,
			"byteLength":26376,
			"byteOffset":455936,
			"target":34963
		},
		{
			"buffer":0,
			"byteLength":704,
			"byteOffset":482312
		},
		{
			"buffer":0,
			"byteLength":8,
			"byteOffset":483016
		},
		{
			"buffer":0,
			"byteLength":24,
			"byteOffset":483024
		},
		{
			"buffer":0,
			"byteLength":32,
			"byteOffset":483048
		},
		{
			"buffer":0,
			"byteLength":24,
			"byteOffset":483080
		},
		{
			"buffer":0,
			"byteLength":24,
			"byteOffset":483104
		},
		{
			"buffer":0,
			"byteLength":164,
			"byteOffset":483128
		},
		{
			"buffer":0,
			"byteLength":656,
			"byteOffset":483292
		},
		{
			"buffer":0,
			"byteLength":24,
			"byteOffset":483948
		},
		{
			"buffer":0,
			"byteLength":24,
			"byteOffset":483972
		},
		{
			"buffer":0,
			"byteLength":32,
			"byteOffset":483996
		},
		{
			"buffer":0,
			"byteLength":24,
			"byteOffset":484028
		},
		{
			"buffer":0,
			"byteLength":24,
			"byteOffset":484052
		},
		{
			"buffer":0,
			"byteLength":32,
			"byteOffset":484076
		},
		{
			"buffer":0,
			"byteLength":24,
			"byteOffset":484108
		},
		{
			"buffer":0,
			"byteLength":24,
			"byteOffset":484132
		},
		{
			"buffer":0,
			"byteLength":656,
			"byteOffset":484156
		},
		{
			"buffer":0,
			"byteLength":24,
			"byteOffset":484812
		},
		{
			"buffer":0,
			"byteLength":24,
			"byteOffset":484836
		},
		{
			"buffer":0,
			"byteLength":32,
			"byteOffset":484860
		},
		{
			"buffer":0,
			"byteLength":24,
			"byteOffset":484892
		},
		{
			"buffer":0,
			"byteLength":24,
			"byteOffset":484916
		},
		{
			"buffer":0,
			"byteLength":32,
			"byteOffset":484940
		},
		{
			"buffer":0,
			"byteLength":24,
			"byteOffset":484972
		},
		{
			"buffer":0,
			"byteLength":24,
			"byteOffset":484996
		},
		{
			"buffer":0,
			"byteLength":32,
			"byteOffset":485020
		},
		{
			"buffer":0,
			"byteLength":24,
			"byteOffset":485052
		},
		{
			"buffer":0,
			"byteLength":24,
			"byteOffset":485076
		},
		{
			"buffer":0,
			"byteLength":32,
			"byteOffset":485100
		},
		{
			"buffer":0,
			"byteLength":24,
			"byteOffset":485132
		},
		{
			"buffer":0,
			"byteLength":24,
			"byteOffset":485156
		},
		{
			"buffer":0,
			"byteLength":32,
			"byteOffset":485180
		},
		{
			"buffer":0,
			"byteLength":24,
			"byteOffset":485212
		},
		{
			"buffer":0,
			"byteLength":24,
			"byteOffset":485236
		},
		{
			"buffer":0,
			"byteLength":32,
			"byteOffset":485260
		},
		{
			"buffer":0,
			"byteLength":24,
			"byteOffset":485292
		},
		{
			"buffer":0,
			"byteLength":8,
			"byteOffset":485316
		},
		{
			"buffer":0,
			"byteLength":24,
			"byteOffset":485324
		},
		{
			"buffer":0,
			"byteLength":32,
			"byteOffset":485348
		},
		{
			"buffer":0,
			"byteLength":24,
			"byteOffset":485380
		},
		{
			"buffer":0,
			"byteLength":24,
			"byteOffset":485404
		},
		{
			"buffer":0,
			"byteLength":32,
			"byteOffset":485428
		},
		{
			"buffer":0,
			"byteLength":24,
			"byteOffset":485460
		},
		{
			"buffer":0,
			"byteLength":24,
			"byteOffset":485484
		},
		{
			"buffer":0,
			"byteLength":32,
			"byteOffset":485508
		},
		{
			"buffer":0,
			"byteLength":24,
			"byteOffset":485540
		},
		{
			"buffer":0,
			"byteLength":24,
			"byteOffset":485564
		},
		{
			"buffer":0,
			"byteLength":32,
			"byteOffset":485588
		},
		{
			"buffer":0,
			"byteLength":24,
			"byteOffset":485620
		},
		{
			"buffer":0,
			"byteLength":24,
			"byteOffset":485644
		},
		{
			"buffer":0,
			"byteLength":32,
			"byteOffset":485668
		},
		{
			"buffer":0,
			"byteLength":24,
			"byteOffset":485700
		},
		{
			"buffer":0,
			"byteLength":24,
			"byteOffset":485724
		},
		{
			"buffer":0,
			"byteLength":32,
			"byteOffset":485748
		},
		{
			"buffer":0,
			"byteLength":24,
			"byteOffset":485780
		},
		{
			"buffer":0,
			"byteLength":24,
			"byteOffset":485804
		},
		{
			"buffer":0,
			"byteLength":32,
			"byteOffset":485828
		},
		{
			"buffer":0,
			"byteLength":24,
			"byteOffset":485860
		},
		{
			"buffer":0,
			"byteLength":24,
			"byteOffset":485884
		},
		{
			"buffer":0,
			"byteLength":32,
			"byteOffset":485908
		},
		{
			"buffer":0,
			"byteLength":24,
			"byteOffset":485940
		},
		{
			"buffer":0,
			"byteLength":24,
			"byteOffset":485964
		},
		{
			"buffer":0,
			"byteLength":32,
			"byteOffset":485988
		},
		{
			"buffer":0,
			"byteLength":24,
			"byteOffset":486020
		},
		{
			"buffer":0,
			"byteLength":24,
			"byteOffset":486044
		},
		{
			"buffer":0,
			"byteLength":32,
			"byteOffset":486068
		},
		{
			"buffer":0,
			"byteLength":24,
			"byteOffset":486100
		},
		{
			"buffer":0,
			"byteLength":24,
			"byteOffset":486124
		},
		{
			"buffer":0,
			"byteLength":32,
			"byteOffset":486148
		},
		{
			"buffer":0,
			"byteLength":24,
			"byteOffset":486180
		},
		{
			"buffer":0,
			"byteLength":492,
			"byteOffset":486204
		},
		{
			"buffer":0,
			"byteLength":32,
			"byteOffset":486696
		},
		{
			"buffer":0,
			"byteLength":24,
			"byteOffset":486728
		},
		{
			"buffer":0,
			"byteLength":24,
			"byteOffset":486752
		},
		{
			"buffer":0,
			"byteLength":656,
			"byteOffset":486776
		},
		{
			"buffer":0,
			"byteLength":24,
			"byteOffset":487432
		},
		{
			"buffer":0,
			"byteLength":24,
			"byteOffset":487456
		},
		{
			"buffer":0,
			"byteLength":32,
			"byteOffset":487480
		},
		{
			"buffer":0,
			"byteLength":24,
			"byteOffset":487512
		},
		{
			"buffer":0,
			"byteLength":24,
			"byteOffset":487536
		},
		{
			"buffer":0,
			"byteLength":32,
			"byteOffset":487560
		},
		{
			"buffer":0,
			"byteLength":24,
			"byteOffset":487592
		},
		{
			"buffer":0,
			"byteLength":24,
			"byteOffset":487616
		},
		{
			"buffer":0,
			"byteLength":656,
			"byteOffset":487640
		},
		{
			"buffer":0,
			"byteLength":24,
			"byteOffset":488296
		},
		{
			"buffer":0,
			"byteLength":24,
			"byteOffset":488320
		},
		{
			"buffer":0,
			"byteLength":32,
			"byteOffset":488344
		},
		{
			"buffer":0,
			"byteLength":24,
			"byteOffset":488376
		},
		{
			"buffer":0,
			"byteLength":24,
			"byteOffset":488400
		},
		{
			"buffer":0,
			"byteLength":32,
			"byteOffset":488424
		},
		{
			"buffer":0,
			"byteLength":24,
			"byteOffset":488456
		},
		{
			"buffer":0,
			"byteLength":24,
			"byteOffset":488480
		},
		{
			"buffer":0,
			"byteLength":32,
			"byteOffset":488504
		},
		{
			"buffer":0,
			"byteLength":24,
			"byteOffset":488536
		},
		{
			"buffer":0,
			"byteLength":24,
			"byteOffset":488560
		},
		{
			"buffer":0,
			"byteLength":32,
			"byteOffset":488584
		},
		{
			"buffer":0,
			"byteLength":24,
			"byteOffset":488616
		},
		{
			"buffer":0,
			"byteLength":24,
			"byteOffset":488640
		},
		{
			"buffer":0,
			"byteLength":32,
			"byteOffset":488664
		},
		{
			"buffer":0,
			"byteLength":24,
			"byteOffset":488696
		},
		{
			"buffer":0,
			"byteLength":24,
			"byteOffset":488720
		},
		{
			"buffer":0,
			"byteLength":32,
			"byteOffset":488744
		},
		{
			"buffer":0,
			"byteLength":24,
			"byteOffset":488776
		},
		{
			"buffer":0,
			"byteLength":4,
			"byteOffset":488800
		},
		{
			"buffer":0,
			"byteLength":12,
			"byteOffset":488804
		},
		{
			"buffer":0,
			"byteLength":16,
			"byteOffset":488816
		},
		{
			"buffer":0,
			"byteLength":12,
			"byteOffset":488832
		},
		{
			"buffer":0,
			"byteLength":12,
			"byteOffset":488844
		},
		{
			"buffer":0,
			"byteLength":16,
			"byteOffset":488856
		},
		{
			"buffer":0,
			"byteLength":12,
			"byteOffset":488872
		},
		{
			"buffer":0,
			"byteLength":12,
			"byteOffset":488884
		},
		{
			"buffer":0,
			"byteLength":16,
			"byteOffset":488896
		},
		{
			"buffer":0,
			"byteLength":12,
			"byteOffset":488912
		},
		{
			"buffer":0,
			"byteLength":12,
			"byteOffset":488924
		},
		{
			"buffer":0,
			"byteLength":16,
			"byteOffset":488936
		},
		{
			"buffer":0,
			"byteLength":12,
			"byteOffset":488952
		},
		{
			"buffer":0,
			"byteLength":12,
			"byteOffset":488964
		},
		{
			"buffer":0,
			"byteLength":16,
			"byteOffset":488976
		},
		{
			"buffer":0,
			"byteLength":12,
			"byteOffset":488992
		},
		{
			"buffer":0,
			"byteLength":12,
			"byteOffset":489004
		},
		{
			"buffer":0,
			"byteLength":16,
			"byteOffset":489016
		},
		{
			"buffer":0,
			"byteLength":12,
			"byteOffset":489032
		},
		{
			"buffer":0,
			"byteLength":12,
			"byteOffset":489044
		},
		{
			"buffer":0,
			"byteLength":16,
			"byteOffset":489056
		},
		{
			"buffer":0,
			"byteLength":12,
			"byteOffset":489072
		},
		{
			"buffer":0,
			"byteLength":12,
			"byteOffset":489084
		},
		{
			"buffer":0,
			"byteLength":16,
			"byteOffset":489096
		},
		{
			"buffer":0,
			"byteLength":12,
			"byteOffset":489112
		},
		{
			"buffer":0,
			"byteLength":12,
			"byteOffset":489124
		},
		{
			"buffer":0,
			"byteLength":16,
			"byteOffset":489136
		},
		{
			"buffer":0,
			"byteLength":12,
			"byteOffset":489152
		},
		{
			"buffer":0,
			"byteLength":12,
			"byteOffset":489164
		},
		{
			"buffer":0,
			"byteLength":16,
			"byteOffset":489176
		},
		{
			"buffer":0,
			"byteLength":12,
			"byteOffset":489192
		},
		{
			"buffer":0,
			"byteLength":12,
			"byteOffset":489204
		},
		{
			"buffer":0,
			"byteLength":16,
			"byteOffset":489216
		},
		{
			"buffer":0,
			"byteLength":12,
			"byteOffset":489232
		},
		{
			"buffer":0,
			"byteLength":492,
			"byteOffset":489244
		},
		{
			"buffer":0,
			"byteLength":32,
			"byteOffset":489736
		},
		{
			"buffer":0,
			"byteLength":24,
			"byteOffset":489768
		},
		{
			"buffer":0,
			"byteLength":24,
			"byteOffset":489792
		},
		{
			"buffer":0,
			"byteLength":656,
			"byteOffset":489816
		},
		{
			"buffer":0,
			"byteLength":24,
			"byteOffset":490472
		},
		{
			"buffer":0,
			"byteLength":24,
			"byteOffset":490496
		},
		{
			"buffer":0,
			"byteLength":32,
			"byteOffset":490520
		},
		{
			"buffer":0,
			"byteLength":24,
			"byteOffset":490552
		},
		{
			"buffer":0,
			"byteLength":24,
			"byteOffset":490576
		},
		{
			"buffer":0,
			"byteLength":32,
			"byteOffset":490600
		},
		{
			"buffer":0,
			"byteLength":24,
			"byteOffset":490632
		},
		{
			"buffer":0,
			"byteLength":24,
			"byteOffset":490656
		},
		{
			"buffer":0,
			"byteLength":656,
			"byteOffset":490680
		},
		{
			"buffer":0,
			"byteLength":24,
			"byteOffset":491336
		},
		{
			"buffer":0,
			"byteLength":24,
			"byteOffset":491360
		},
		{
			"buffer":0,
			"byteLength":32,
			"byteOffset":491384
		},
		{
			"buffer":0,
			"byteLength":24,
			"byteOffset":491416
		},
		{
			"buffer":0,
			"byteLength":24,
			"byteOffset":491440
		},
		{
			"buffer":0,
			"byteLength":32,
			"byteOffset":491464
		},
		{
			"buffer":0,
			"byteLength":24,
			"byteOffset":491496
		},
		{
			"buffer":0,
			"byteLength":24,
			"byteOffset":491520
		},
		{
			"buffer":0,
			"byteLength":32,
			"byteOffset":491544
		},
		{
			"buffer":0,
			"byteLength":24,
			"byteOffset":491576
		},
		{
			"buffer":0,
			"byteLength":24,
			"byteOffset":491600
		},
		{
			"buffer":0,
			"byteLength":32,
			"byteOffset":491624
		},
		{
			"buffer":0,
			"byteLength":24,
			"byteOffset":491656
		},
		{
			"buffer":0,
			"byteLength":24,
			"byteOffset":491680
		},
		{
			"buffer":0,
			"byteLength":32,
			"byteOffset":491704
		},
		{
			"buffer":0,
			"byteLength":24,
			"byteOffset":491736
		},
		{
			"buffer":0,
			"byteLength":24,
			"byteOffset":491760
		},
		{
			"buffer":0,
			"byteLength":32,
			"byteOffset":491784
		},
		{
			"buffer":0,
			"byteLength":24,
			"byteOffset":491816
		}
	],
	"samplers":[
		{
			"magFilter":9729,
			"minFilter":9987
		}
	],
	"buffers":[
		{
			"byteLength":491840,
			"uri":"Player2.bin"
		}
	]
}
