# Blender 4.2.0
# www.blender.org
mtllib maguro.mtl
o Cube
v 0.425000 0.500000 0.690942
v 0.425000 -0.500000 0.690942
v -0.425000 0.500000 0.690942
v -0.425000 -0.500000 0.690942
v 0.425000 0.500000 -1.232976
v 0.425000 -0.500000 -1.232976
v -0.425000 0.500000 -1.232976
v -0.425000 -0.500000 -1.232976
v -0.000000 -0.606423 -1.760627
v 0.518133 -0.609568 -0.000000
v 0.518133 0.000000 0.800510
v -0.518133 -0.000000 -1.342544
v -0.518133 0.000000 0.800510
v 0.518133 -0.000000 -1.342544
v -0.518133 0.609568 0.000000
v 0.000000 0.609568 0.800510
v -0.518133 -0.609568 0.000000
v -0.000000 0.616620 -1.148676
v 0.518133 0.609568 -0.000000
v 0.000000 -0.609568 0.800510
v 0.000000 1.023730 0.402698
v -1.370511 0.000000 -0.269425
v 0.000028 0.000000 -2.975998
v -0.000000 -0.839506 0.000000
v 0.000000 0.036293 1.452373
v 1.370501 0.000000 -0.269426
v 0.471566 0.250000 0.745726
v -0.471567 0.250000 -1.287760
v -0.471566 0.250000 0.745726
v 0.471566 0.250000 -1.287760
v -0.615857 0.248484 0.000000
v -0.000137 0.253925 -2.431249
v 0.000000 0.304784 1.267498
v 0.615857 0.248484 -0.000000
v 0.515772 -0.606757 0.318171
v -0.515715 0.606757 0.318172
v -0.515714 -0.606757 0.318172
v 0.515772 0.606757 0.318171
v 0.000029 0.792412 0.450047
v -0.840506 0.000000 0.168637
v 0.000029 -0.792412 0.378088
v 0.840571 0.000000 0.168637
v 0.594676 0.227610 0.348129
v -0.594618 0.227610 0.348130
v 0.471566 -0.554784 -0.769533
v -0.471566 0.554784 -0.769533
v -0.471566 -0.554784 -0.769533
v 0.471566 0.554784 -0.769533
v -0.000000 0.993443 -0.681698
v -0.615857 0.000000 -0.824317
v -0.000000 -0.660491 -1.115814
v 0.615856 0.000000 -0.824317
v 0.543711 0.277392 -0.796925
v -0.543712 0.277392 -0.796925
v 0.212500 -0.554784 -1.287760
v 0.212500 0.554784 0.745726
v 0.212500 0.561523 -1.294368
v 0.212500 -0.554784 0.745726
v 0.259066 0.724537 -0.000000
v 0.209706 -0.000000 -2.431249
v 0.259066 -0.724537 -0.000000
v 0.218009 -0.075711 1.267498
v 0.235783 0.277392 1.182621
v 0.190846 0.224686 -1.892446
v 0.257900 -0.699584 0.432471
v 0.257900 0.699584 0.348129
v 0.235783 -0.639661 -0.796925
v 0.235783 0.639660 -0.796925
v -0.213853 -0.554435 -1.287411
v -0.213853 0.554435 0.745377
v -0.213853 0.554435 -1.287411
v -0.213853 -0.554435 0.745377
v -0.260716 0.723805 0.000000
v -0.211315 -0.000000 -2.430655
v -0.260716 -0.723805 0.000000
v -0.219658 -0.075711 1.266766
v -0.237284 0.277218 1.182081
v -0.192335 0.224545 -1.892008
v -0.259484 -0.698994 0.432280
v -0.259484 0.698994 0.347939
v -0.237284 -0.619967 -0.796751
v -0.237284 0.639120 -0.796751
v 0.471566 -0.250000 0.745726
v -0.471567 -0.250000 -1.287760
v -0.471566 -0.250000 0.745726
v 0.471566 -0.250000 -1.287760
v -0.678653 -0.304784 -0.129489
v -0.000137 -0.246873 -2.431249
v 0.000000 -0.093720 1.412940
v 0.678659 -0.304784 -0.129489
v 0.694868 -0.303378 0.348129
v -0.694813 -0.303378 0.348130
v 0.543711 -0.277392 -0.796925
v -0.543712 -0.277392 -0.796925
v 0.235783 -0.163438 1.182621
v 0.190846 -0.224686 -1.892446
v -0.237284 -0.163264 1.182081
v -0.192335 -0.224545 -1.892008
v 0.664718 -0.096092 -0.000000
v 0.101222 0.800871 -0.671148
v -0.101978 0.800599 -0.671060
v 0.111223 0.822106 0.223341
v -0.112042 0.821738 0.223341
v -0.664718 -0.096092 0.000000
v 0.634127 -0.075921 0.363108
v -0.634070 -0.075921 0.363109
v -0.105726 0.123437 -2.430952
v 0.104785 0.123437 -2.431249
v -0.000054 0.421748 -3.208145
v -0.052931 0.185155 -2.431100
v 0.052324 0.185155 -2.431249
v -0.000054 -0.360126 -3.115135
v -0.105726 -0.123437 -2.430952
v 0.104785 -0.123437 -2.431249
v -0.052931 -0.185155 -2.431100
v 0.052324 -0.185155 -2.431249
v -0.000068 -0.480724 -1.886896
v -0.000000 -0.709987 -0.970859
v -0.000068 0.370710 -1.744170
v -0.000027 0.729736 -1.507860
v -0.786419 0.000000 -0.302392
v 0.786416 0.000000 -0.302392
v 0.000000 0.007752 1.158932
v 0.000000 -0.394563 1.250123
v 0.129533 -0.018053 1.359935
v -0.130358 -0.018053 1.359569
v -0.995585 0.000000 -0.247785
v 0.995580 0.000000 -0.247786
v -1.163331 0.000000 -0.088517
v 1.163362 0.000000 -0.088517
v 1.072689 -0.023498 -0.145940
v 0.910300 0.124242 -0.096590
v -1.072678 -0.023501 -0.145934
v -0.910304 0.124242 -0.096589
v -0.470357 -0.553378 0.504557
v -0.106926 -0.582002 0.772943
v 0.318750 -0.527392 0.718334
v 0.470386 -0.553378 0.504557
v 0.000014 -0.700990 0.589299
v -0.387599 -0.652875 0.333055
v 0.128965 -0.745998 0.363109
v 0.106250 -0.582176 0.773118
v 0.386836 -0.653171 0.333150
v 0.235200 -0.827378 0.546928
v -0.319426 -0.527218 0.718159
v -0.129728 -0.745703 0.363013
v -0.236669 -0.826908 0.546658
v -0.164464 -0.663852 0.567978
v 0.352793 -0.590281 0.525742
v -0.353513 -0.590046 0.525607
v 0.163744 -0.664087 0.568113
v 0.106236 0.610265 -1.491799
v -0.000000 -0.798314 -2.094057
v -0.106940 0.606722 -1.488320
v -0.000041 1.011307 -2.216988
v -0.000094 0.617397 -1.706775
vn 0.0001 0.2005 0.9797
vn 0.9119 0.3922 0.1208
vn 0.0008 0.7749 0.6321
vn 0.8732 0.4486 -0.1905
vn -0.0012 0.7782 -0.6280
vn 0.0011 0.9500 -0.3121
vn -0.4453 0.8708 -0.2084
vn -0.7024 0.6472 -0.2962
vn -0.7360 0.6654 -0.1247
vn -0.4786 0.8778 -0.0210
vn -0.7407 0.6466 0.1823
vn -0.4214 0.8752 0.2375
vn 0.0017 0.9971 -0.0761
vn 0.7393 0.6200 -0.2629
vn 0.5801 0.3525 -0.7343
vn -0.8408 0.5412 -0.0137
vn -0.8857 0.3975 0.2397
vn -0.9602 0.2563 -0.1112
vn -0.9296 0.2604 -0.2610
vn -0.9865 0.0158 -0.1627
vn -0.9296 -0.2604 -0.2610
vn -0.9500 -0.2598 -0.1730
vn -0.7375 0.6217 -0.2638
vn -0.5587 0.7764 -0.2917
vn 0.5594 0.7751 -0.2938
vn -0.0066 0.8509 -0.5253
vn 0.4327 0.8737 -0.2225
vn 0.7126 0.6383 -0.2912
vn 0.9409 -0.0000 -0.3386
vn 0.9723 -0.0000 -0.2337
vn 0.9293 -0.2605 -0.2617
vn 0.3563 -0.9236 -0.1417
vn 0.3957 -0.9182 -0.0187
vn -0.0031 -0.9999 -0.0124
vn 0.3601 -0.8134 0.4569
vn -0.0000 -0.9095 0.4157
vn -0.0002 -0.9208 0.3900
vn -0.5513 -0.7615 0.3408
vn -0.6627 -0.6015 0.4462
vn -0.6185 -0.6823 0.3898
vn -0.3926 -0.9194 -0.0254
vn -0.6943 -0.7019 -0.1587
vn -0.3503 -0.9261 -0.1401
vn 0.6094 0.4845 0.6277
vn -0.0000 0.8671 0.4982
vn -0.0000 0.7022 0.7120
vn -0.6100 0.4842 0.6272
vn -0.3421 0.8306 0.4393
vn -0.6835 0.6041 0.4097
vn -0.5913 -0.5193 0.6171
vn -0.9054 -0.0101 0.4244
vn -0.8654 -0.2389 0.4405
vn 0.7172 -0.6802 -0.1517
vn 0.9744 -0.2124 -0.0738
vn 0.6684 -0.7429 -0.0362
vn 0.7360 0.6653 -0.1247
vn 0.8408 0.5412 -0.0138
vn 0.9602 0.2563 -0.1112
vn 0.8857 0.3976 0.2397
vn 0.6835 0.6039 0.4101
vn 0.8987 0.2468 0.3626
vn 0.8708 -0.3899 0.2994
vn 0.8482 -0.2066 0.4878
vn 0.9049 -0.0101 0.4254
vn 0.9865 0.0158 -0.1627
vn -0.3547 -0.4990 0.7907
vn 0.0006 -0.2818 0.9595
vn 0.9293 0.2605 -0.2617
vn 0.7359 -0.6255 -0.2590
vn 0.0010 -0.0482 -0.9988
vn -0.9725 -0.0000 -0.2330
vn -0.8481 -0.2066 0.4878
vn -0.3155 0.9465 -0.0675
vn -0.6344 -0.1984 0.7471
vn -0.8991 0.2467 0.3616
vn 0.7408 0.6465 0.1823
vn -0.3964 -0.9025 0.1685
vn -0.6302 -0.7580 0.1682
vn -0.6684 -0.7429 -0.0362
vn 0.3113 -0.9300 0.1956
vn -0.0000 -0.9644 0.2644
vn -0.8708 -0.3899 0.2994
vn 0.3421 0.8305 0.4395
vn 0.0006 0.9184 0.3956
vn 0.9500 -0.2598 -0.1730
vn -0.6979 -0.6556 -0.2882
vn -0.4766 -0.8574 -0.1942
vn 0.4747 -0.8555 -0.2071
vn -0.0146 -0.9933 -0.1148
vn -0.0981 -0.9949 -0.0224
vn -0.9266 -0.0591 -0.3713
vn -0.0953 -0.2218 -0.9704
vn -0.7572 0.6520 -0.0397
vn 0.4789 0.8776 -0.0210
vn 0.7572 0.6520 -0.0398
vn 0.7024 -0.6471 -0.2965
vn 0.4217 0.8750 0.2378
vn 0.3963 -0.9025 0.1688
vn 0.3730 -0.9278 -0.0058
vn -0.7208 -0.6210 -0.3081
vn -0.9405 -0.0000 -0.3398
vn -0.7341 -0.6273 -0.2599
vn 0.3519 -0.5003 0.7911
vn 0.5909 -0.5192 0.6175
vn 0.8649 -0.2390 0.4413
vn 0.5503 -0.7622 0.3409
vn 0.5288 0.0564 0.8469
vn 0.3379 -0.7492 0.5697
vn 0.4460 0.8709 -0.2062
vn -0.6584 0.7296 -0.1851
vn -0.5321 0.8344 0.1436
vn -0.3116 -0.9299 0.1955
vn -0.3752 -0.9269 -0.0059
vn -0.0016 -0.9620 0.2729
vn -0.6907 -0.1776 -0.7010
vn 0.2792 -0.8883 0.3647
vn -0.3601 -0.8134 0.4569
vn -0.3380 -0.7492 0.5697
vn -0.4223 0.8777 -0.2264
vn -0.9110 0.3941 0.1214
vn -0.0115 0.9984 -0.0549
vn 0.0009 -0.7229 0.6909
vn -0.0000 -0.4760 0.8795
vn 0.0017 -0.9914 -0.1308
vn 0.7213 -0.6204 -0.3081
vn 0.6627 -0.6012 0.4465
vn 0.9600 -0.1474 0.2380
vn -0.9744 -0.2124 -0.0738
vn -0.8454 -0.5341 0.0009
vn -0.1607 -0.9410 0.2979
vn -0.0292 -0.9655 -0.2589
vn 0.0002 -0.5218 -0.8531
vn -0.8702 0.4824 -0.1005
vn 0.0001 0.5059 -0.8626
vn 0.5331 0.8338 0.1433
vn 0.6597 0.7285 -0.1846
vn -0.8720 0.4506 -0.1912
vn 0.0009 -0.8959 -0.4442
vn -0.9600 -0.1474 0.2380
vn 0.6184 -0.6823 0.3899
vn 0.0981 -0.9949 -0.0225
vn 0.9266 -0.0591 -0.3713
vn 0.6344 -0.1984 0.7471
vn 0.0953 -0.2218 -0.9704
vn -0.5802 0.3534 -0.7339
vn 0.4711 -0.8776 -0.0893
vn 0.8454 -0.5341 0.0008
vn 0.0030 0.4565 -0.8897
vn -0.8971 0.3245 -0.2999
vn -0.0055 0.9701 0.2426
vn 0.8943 0.3295 -0.3027
vn -0.7533 -0.2250 -0.6180
vn 0.7533 -0.2250 -0.6180
vn 0.3154 0.9465 -0.0675
vn 0.6895 -0.1784 -0.7020
vn 0.0303 -0.9992 0.0277
vn -0.0326 -0.9991 0.0284
vn 0.6302 -0.7580 0.1682
vn -0.2833 -0.8872 0.3641
vn 0.0012 -0.5536 -0.8328
vn -0.0000 0.4915 -0.8709
vn 0.0005 -0.3134 -0.9496
vt 0.282784 0.183292
vt 0.274404 0.232890
vt 0.245124 0.199364
vt 0.277635 0.401052
vt 0.283666 0.494382
vt 0.238944 0.398237
vt 0.151515 0.430691
vt 0.100422 0.502186
vt 0.106765 0.420914
vt 0.161446 0.283602
vt 0.109677 0.231216
vt 0.155431 0.219903
vt 0.359409 0.736255
vt 0.388739 0.734970
vt 0.374551 0.735979
vt 0.044068 0.283541
vt 0.044624 0.220146
vt 0.055299 0.426703
vt 0.056727 0.514785
vt 0.660615 0.431187
vt 0.605941 0.513567
vt 0.609329 0.424976
vt 0.085822 0.738745
vt 0.056558 0.735317
vt 0.073947 0.635794
vt 0.378349 0.634635
vt 0.331359 0.615987
vt 0.325579 0.518457
vt 0.361723 0.499987
vt 0.826386 0.129982
vt 0.850734 0.337278
vt 0.804959 0.350033
vt 0.713940 0.436841
vt 0.704448 0.575978
vt 0.654633 0.575592
vt 0.698642 0.716976
vt 0.679874 0.725617
vt 0.667678 0.685197
vt 0.535524 0.199651
vt 0.554118 0.172297
vt 0.554507 0.205358
vt 0.505667 0.287630
vt 0.558595 0.418361
vt 0.516289 0.427069
vt 0.394627 0.075351
vt 0.315484 0.122491
vt 0.367463 0.043868
vt 0.093139 0.075890
vt 0.136239 0.148236
vt 0.104091 0.167040
vt 0.571775 0.063217
vt 0.636619 0.131704
vt 0.594211 0.152872
vt 0.757627 0.445262
vt 0.811492 0.556776
vt 0.752569 0.576499
vt 0.360324 0.418887
vt 0.431199 0.285743
vt 0.411225 0.427817
vt 0.434487 0.222438
vt 0.378340 0.165853
vt 0.419278 0.152249
vt 0.937998 0.172548
vt 0.951290 0.122684
vt 0.972138 0.245613
vt 0.461584 0.137280
vt 0.461584 0.436969
vt 0.022707 0.133500
vt 0.044423 0.040341
vt 0.407790 0.004568
vt 0.416841 0.732706
vt 0.404199 0.515393
vt 0.798009 0.126597
vt 0.816385 0.028354
vt 0.004421 0.432669
vt 0.011262 0.526213
vt 0.452590 0.822366
vt 0.481471 0.867874
vt 0.438155 0.893751
vt 0.064038 0.150995
vt 0.238765 0.766781
vt 0.209828 0.820697
vt 0.173097 0.765177
vt 0.368899 0.229551
vt 0.531486 0.232345
vt 0.553407 0.236510
vt 0.553500 0.287107
vt 0.684329 0.640498
vt 0.659780 0.644225
vt 0.827402 0.997275
vt 0.852420 0.875131
vt 0.864010 0.925417
vt 0.347200 0.145007
vt 0.448675 0.529835
vt 0.859647 0.432415
vt 0.808360 0.438635
vt 0.561726 0.499374
vt 0.524935 0.518187
vt 0.723750 0.345279
vt 0.678717 0.377500
vt 0.856132 0.805637
vt 0.827402 0.755906
vt 0.878236 0.798911
vt 0.110425 0.284151
vt 0.313743 0.278658
vt 0.364945 0.282323
vt 0.760742 0.364231
vt 0.323630 0.215400
vt 0.730425 0.631270
vt 0.708505 0.651922
vt 0.584603 0.636845
vt 0.627475 0.733462
vt 0.599044 0.736925
vt 0.445417 0.042751
vt 0.835669 0.731874
vt 0.770647 0.800533
vt 0.793266 0.710704
vt 0.734458 0.663960
vt 0.735627 0.698939
vt 0.716091 0.707869
vt 0.314882 0.425996
vt 0.190326 0.407992
vt 0.203623 0.240284
vt 0.479666 0.486058
vt 0.198443 0.190218
vt 0.169471 0.127549
vt 0.485400 0.223111
vt 0.509717 0.211733
vt 0.028594 0.730986
vt 0.084441 0.004248
vt 0.122334 0.045916
vt 0.003489 0.007247
vt 0.045407 0.024793
vt 0.027702 0.042118
vt 0.455530 0.287970
vt 0.497284 0.186473
vt 0.499711 0.146674
vt 0.517272 0.155827
vt 0.135261 0.522220
vt 0.651718 0.526316
vt 0.235027 0.208598
vt 0.179010 0.500792
vt 0.510590 0.051128
vt 0.552420 0.003927
vt 0.769297 0.124092
vt 0.783469 0.226630
vt 0.753176 0.691278
vt 0.805927 0.634404
vt 0.612442 0.306829
vt 0.649200 0.282942
vt 0.843905 0.647132
vt 0.751553 0.859647
vt 0.709668 0.812485
vt 0.570273 0.739497
vt 0.536677 0.164689
vt 0.474082 0.460038
vt 0.556743 0.859647
vt 0.584662 0.738337
vt 0.035175 0.831937
vt 0.430198 0.023543
vt 0.331590 0.870233
vt 0.673392 0.403578
vt 0.229214 0.407491
vt 0.725012 0.220403
vt 0.525990 0.643194
vt 0.644856 0.216456
vt 0.606872 0.229187
vt 0.753564 0.658224
vt 0.949934 0.053109
vt 0.980336 0.004386
vt 0.969440 0.051828
vt 0.489321 0.766847
vt 0.518251 0.820767
vt 0.928069 0.045638
vt 0.403323 0.832665
vt 0.070687 0.737364
vt 0.104129 0.874468
vt 0.617311 0.835218
vt 0.783655 0.125218
vt 0.755774 0.003864
vt 0.848248 0.580657
vt 0.703132 0.244233
vt 0.504120 0.619368
vt 0.122370 0.620708
vt 0.154632 0.563263
vt 0.277669 0.560473
vt 0.183952 0.566806
vt 0.305494 0.556917
vt 0.603447 0.946458
vt 0.520776 0.896023
vt 0.429097 0.700377
vt 0.149608 0.887172
vt 0.241288 0.691526
vt 0.323955 0.641087
vt 0.201984 0.719676
vt 0.205023 0.681530
vt 0.812484 0.004386
vt 0.892229 0.058915
vt 0.905584 0.117194
vt 0.484512 0.906020
vt 0.995157 0.761611
vt 0.898278 0.871190
vt 0.913605 0.813399
vt 0.158662 0.693797
vt 0.836684 0.803695
vt 0.152450 0.005130
vt 0.128102 0.039937
vt 0.110270 0.022548
vt 0.149608 0.646929
vt 0.429097 0.940623
vt 0.511462 0.193905
vt 0.468642 0.178401
vt 0.480826 0.137987
vt 0.710329 0.669748
vt 0.752479 0.627082
vt 0.696191 0.677177
vt 0.460708 0.219344
vt 0.291403 0.597040
vt 0.160797 0.607948
vt 0.171836 0.108855
vt 0.213853 0.003126
vt 0.187471 0.148215
vt 0.235026 0.679138
vt 0.213853 0.137798
vt 0.654633 0.193418
vt 0.455529 0.670024
vt 0.581455 0.042173
vt 0.780335 0.821631
vt 0.003490 0.059286
vt 0.055051 0.005272
vt 0.060850 0.021976
vt 0.100704 0.003044
vt 0.152450 0.057169
s 1
usemtl Material
f 39/1/1 102/2/2 21/3/3
f 100/4/4 18/5/5 49/6/6
f 82/7/7 7/8/8 46/9/9
f 73/10/10 36/11/11 80/12/12
f 32/13/13 108/14/14 111/15/15
f 36/11/11 31/16/16 44/17/17
f 54/18/18 7/8/8 28/19/19
f 50/20/20 84/21/21 94/22/22
f 32/23/13 107/24/23 78/25/24
f 64/26/25 32/13/13 119/27/26
f 64/26/25 57/28/27 5/29/28
f 60/30/29 14/31/30 86/32/31
f 67/33/32 61/34/33 24/35/34
f 142/36/35 20/37/36 139/38/37
f 150/39/38 4/40/39 135/41/40
f 75/42/41 47/43/42 81/44/43
f 63/45/44 16/46/45 33/47/46
f 77/48/47 70/49/48 3/50/49
f 97/51/50 13/52/51 85/53/52
f 45/54/53 90/55/54 10/56/55
f 48/57/56 34/58/57 53/59/58
f 43/60/59 1/61/60 27/62/61
f 105/63/62 42/64/63 11/65/64
f 43/60/59 27/62/61 11/66/64
f 52/67/65 53/59/58 34/58/57
f 77/48/47 13/68/51 76/69/66
f 63/45/44 33/47/46 25/70/67
f 60/71/29 64/26/25 30/72/68
f 114/73/69 23/74/70 60/30/29
f 50/75/20 28/19/19 12/76/71
f 40/77/72 134/78/73 129/79/74
f 13/68/51 29/80/75 44/17/17
f 34/81/57 43/82/59 42/83/63
f 34/58/57 38/84/76 43/60/59
f 140/85/77 37/86/78 17/87/79
f 141/88/80 41/89/81 24/35/34
f 3/50/49 44/17/17 29/80/75
f 13/90/51 40/91/72 106/92/82
f 80/12/12 3/50/49 70/49/48
f 56/93/83 39/1/84 16/46/45
f 31/16/16 54/18/18 50/75/20
f 30/72/68 52/67/65 14/94/30
f 5/29/28 53/59/58 30/72/68
f 86/32/31 52/95/65 93/96/85
f 81/44/43 8/97/86 69/98/87
f 55/99/88 67/33/32 51/100/89
f 133/101/90 22/102/91 127/103/92
f 31/16/16 46/9/9 54/18/18
f 73/10/10 46/9/9 15/104/93
f 102/2/2 100/4/4 49/6/6
f 48/57/56 59/105/94 19/106/95
f 6/107/96 67/33/32 55/99/88
f 1/61/60 66/108/97 56/93/83
f 143/109/98 65/110/99 61/34/33
f 98/111/100 74/112/101 113/113/102
f 11/66/64 63/45/44 62/114/103
f 1/61/60 56/93/83 63/45/44
f 11/115/64 95/116/104 83/117/105
f 149/118/106 137/119/107 58/120/108
f 45/54/53 61/34/33 67/33/32
f 64/26/25 60/71/29 108/14/14
f 5/29/28 68/121/109 48/57/56
f 38/84/76 59/105/94 66/108/97
f 101/122/110 73/10/10 103/123/111
f 51/124/89 81/44/43 69/98/87
f 39/125/84 70/49/48 16/126/45
f 146/127/112 79/128/113 75/42/41
f 28/19/19 78/25/24 74/129/101
f 25/130/67 33/131/46 77/48/47
f 123/132/114 62/133/103 125/134/115
f 16/126/45 77/48/47 33/131/46
f 24/135/34 75/42/41 81/44/43
f 148/136/116 136/137/117 72/138/118
f 7/8/8 71/139/119 78/25/24
f 84/21/21 12/140/71 74/112/101
f 39/125/1 21/141/3 103/123/120
f 18/142/121 82/7/7 101/122/110
f 8/97/86 84/21/21 98/111/100
f 124/143/122 89/144/123 97/51/50
f 88/145/124 96/146/125 55/99/88
f 2/147/126 83/117/105 95/116/104
f 91/148/127 10/56/55 90/55/54
f 6/107/96 93/96/85 45/54/53
f 50/20/20 87/149/128 104/150/129
f 105/151/62 83/117/105 91/148/127
f 97/51/50 85/53/52 4/40/39
f 95/116/104 89/152/123 124/153/122
f 96/146/125 86/32/31 6/107/96
f 69/98/87 98/111/100 88/154/124
f 94/22/22 8/97/86 47/43/42
f 29/80/75 77/48/47 3/50/49
f 27/62/61 1/61/60 63/45/44
f 58/120/108 2/147/126 95/116/104
f 72/138/118 4/40/39 145/155/130
f 30/72/68 64/26/25 5/29/28
f 55/99/88 96/146/125 6/107/96
f 69/98/87 8/97/86 98/111/100
f 28/19/19 7/8/8 78/25/24
f 118/156/131 24/135/34 81/44/43
f 112/157/132 88/154/124 115/158/133
f 88/145/124 114/73/69 96/146/125
f 23/159/70 74/129/101 107/24/23
f 76/69/66 25/130/67 77/48/47
f 62/114/103 25/70/67 125/160/115
f 109/161/134 32/13/13 111/15/15
f 67/33/32 24/35/34 118/162/131
f 80/12/12 103/123/111 73/10/10
f 66/108/97 102/2/135 39/1/84
f 59/105/94 100/4/136 102/2/135
f 49/163/6 101/122/137 103/123/120
f 68/121/109 18/5/121 100/4/136
f 49/163/6 18/142/5 101/122/137
f 14/94/30 60/71/29 30/72/68
f 96/146/125 60/30/29 86/32/31
f 117/164/138 88/145/124 55/99/88
f 69/98/87 88/154/124 117/165/138
f 98/111/100 84/21/21 74/112/101
f 12/76/71 28/19/19 74/129/101
f 85/53/52 106/166/82 92/167/139
f 83/117/105 2/147/126 138/168/140
f 131/169/141 26/170/142 130/171/143
f 74/129/101 78/25/24 107/24/23
f 40/77/72 44/172/17 31/173/16
f 52/95/65 90/55/54 93/96/85
f 92/167/139 37/86/78 135/41/40
f 128/174/144 26/170/142 131/169/141
f 87/149/128 47/43/42 17/87/79
f 60/71/29 23/175/70 108/14/14
f 23/159/70 107/24/23 110/176/145
f 32/23/13 109/177/134 110/176/145
f 23/175/70 109/161/134 111/15/15
f 109/177/134 23/159/70 110/176/145
f 108/14/14 23/175/70 111/15/15
f 74/112/101 23/178/70 113/113/102
f 23/74/70 116/179/146 112/180/132
f 23/178/70 115/158/133 113/113/102
f 88/145/124 112/180/132 116/179/146
f 88/154/124 113/113/102 115/158/133
f 99/181/147 91/148/127 90/55/54
f 9/182/148 117/164/138 55/99/88
f 9/183/148 69/98/87 117/165/138
f 51/100/89 67/33/32 118/162/131
f 51/124/89 118/156/131 81/44/43
f 119/184/26 71/139/119 154/185/149
f 32/23/13 78/25/24 119/184/26
f 57/28/27 120/186/150 18/5/121
f 71/139/119 120/187/150 154/185/149
f 78/25/24 71/139/119 119/184/26
f 152/188/151 57/28/27 119/27/26
f 104/150/129 92/167/139 106/166/82
f 60/30/29 96/146/125 114/73/69
f 31/173/16 50/189/20 121/190/152
f 40/77/72 13/191/51 44/172/17
f 42/83/63 43/82/59 11/192/64
f 122/193/153 52/194/65 34/81/57
f 122/193/153 132/195/154 128/196/144
f 52/197/65 122/198/153 99/199/147
f 134/78/73 121/190/152 127/200/92
f 50/201/20 104/202/129 121/203/152
f 132/195/154 42/83/63 130/204/143
f 133/101/90 40/91/72 129/205/74
f 104/202/129 106/92/82 40/91/72
f 105/63/62 99/199/147 42/64/63
f 97/51/50 72/138/118 136/137/117
f 124/153/122 20/37/36 142/36/35
f 123/206/114 126/207/155 76/208/66
f 131/169/141 42/64/63 99/199/147
f 122/198/153 131/169/141 99/199/147
f 26/209/142 132/195/154 130/204/143
f 26/209/142 128/196/144 132/195/154
f 22/102/91 133/101/90 129/205/74
f 133/101/90 121/203/152 104/202/129
f 22/210/91 134/78/73 127/200/92
f 22/210/91 129/79/74 134/78/73
f 92/167/139 17/87/79 37/86/78
f 148/136/116 147/211/156 79/128/113
f 139/212/37 148/136/116 146/127/112
f 139/212/37 20/213/36 136/137/117
f 149/118/106 144/214/157 65/110/99
f 138/168/140 143/109/98 35/215/158
f 2/147/126 149/118/106 138/168/140
f 140/85/77 135/41/40 37/86/78
f 79/128/113 147/211/156 150/39/38
f 72/138/118 145/155/130 150/39/38
f 141/88/80 151/216/159 139/38/37
f 65/110/99 144/214/157 151/216/159
f 58/120/108 142/36/35 151/216/159
f 41/217/81 139/212/37 146/127/112
f 148/136/116 139/212/37 136/137/117
f 41/89/81 141/88/80 139/38/37
f 151/216/159 142/36/35 139/38/37
f 147/211/156 72/138/118 150/39/38
f 147/211/156 148/136/116 72/138/118
f 146/127/112 148/136/116 79/128/113
f 140/85/77 79/128/113 150/39/38
f 141/88/80 65/110/99 151/216/159
f 143/109/98 149/118/106 65/110/99
f 144/214/157 149/118/106 58/120/108
f 144/214/157 58/120/108 151/216/159
f 64/26/25 119/27/26 57/28/27
f 152/188/151 119/27/26 156/218/160
f 154/185/149 156/219/160 119/184/26
f 156/220/160 155/221/161 152/222/151
f 156/219/160 154/185/149 155/223/161
f 120/187/150 155/223/161 154/185/149
f 152/222/151 155/221/161 120/224/150
f 21/141/3 49/163/6 103/123/120
f 21/3/3 102/2/2 49/6/6
f 55/99/88 153/225/162 9/182/148
f 69/98/87 9/183/148 153/226/162
f 69/98/87 153/226/162 51/124/89
f 55/99/88 51/100/89 153/225/162
f 82/7/7 71/139/119 7/8/8
f 73/10/10 15/104/93 36/11/11
f 32/13/13 64/26/25 108/14/14
f 36/11/11 15/104/93 31/16/16
f 54/18/18 46/9/9 7/8/8
f 50/20/20 12/140/71 84/21/21
f 32/23/13 110/176/145 107/24/23
f 150/39/38 145/155/130 4/40/39
f 75/42/41 17/87/79 47/43/42
f 63/45/44 56/93/83 16/46/45
f 97/51/50 76/227/66 13/52/51
f 45/54/53 93/96/85 90/55/54
f 48/57/56 19/106/95 34/58/57
f 43/60/59 38/84/76 1/61/60
f 77/48/47 29/80/75 13/68/51
f 50/75/20 54/18/18 28/19/19
f 40/77/72 31/173/16 134/78/73
f 34/58/57 19/106/95 38/84/76
f 17/87/79 75/42/41 140/85/77
f 75/42/41 79/128/113 140/85/77
f 24/35/34 61/34/33 141/88/80
f 61/34/33 65/110/99 141/88/80
f 3/50/49 36/11/11 44/17/17
f 80/12/12 36/11/11 3/50/49
f 56/93/83 66/108/97 39/1/84
f 30/72/68 53/59/58 52/67/65
f 5/29/28 48/57/56 53/59/58
f 86/32/31 14/31/30 52/95/65
f 81/44/43 47/43/42 8/97/86
f 31/16/16 15/104/93 46/9/9
f 73/10/10 82/7/7 46/9/9
f 48/57/56 68/121/109 59/105/94
f 6/107/96 45/54/53 67/33/32
f 1/61/60 38/84/76 66/108/97
f 61/34/33 10/56/55 143/109/98
f 10/56/55 35/215/158 143/109/98
f 11/66/64 27/62/61 63/45/44
f 11/115/64 62/228/103 95/116/104
f 45/54/53 10/56/55 61/34/33
f 5/29/28 57/28/27 68/121/109
f 38/84/76 19/106/95 59/105/94
f 101/122/110 82/7/7 73/10/10
f 39/125/84 80/12/12 70/49/48
f 75/42/41 24/135/34 146/127/112
f 24/135/34 41/217/81 146/127/112
f 125/134/115 25/229/67 123/132/114
f 123/132/114 95/230/104 62/133/103
f 16/126/45 70/49/48 77/48/47
f 18/142/121 71/139/119 82/7/7
f 91/148/127 35/215/158 10/56/55
f 6/107/96 86/32/31 93/96/85
f 50/20/20 94/22/22 87/149/128
f 105/151/62 11/115/64 83/117/105
f 94/22/22 84/21/21 8/97/86
f 58/120/108 137/119/107 2/147/126
f 72/138/118 97/51/50 4/40/39
f 88/145/124 116/179/146 114/73/69
f 76/69/66 126/231/155 25/130/67
f 62/114/103 63/45/44 25/70/67
f 80/12/12 39/125/84 103/123/111
f 66/108/97 59/105/94 102/2/135
f 59/105/94 68/121/109 100/4/136
f 68/121/109 57/28/27 18/5/121
f 85/53/52 13/52/51 106/166/82
f 138/168/140 35/215/158 91/148/127
f 91/148/127 83/117/105 138/168/140
f 52/95/65 99/181/147 90/55/54
f 135/41/40 4/40/39 85/53/52
f 85/53/52 92/167/139 135/41/40
f 87/149/128 94/22/22 47/43/42
f 23/74/70 114/73/69 116/179/146
f 23/178/70 112/157/132 115/158/133
f 88/154/124 98/111/100 113/113/102
f 99/181/147 105/151/62 91/148/127
f 57/28/27 152/188/151 120/186/150
f 71/139/119 18/142/121 120/187/150
f 104/150/129 87/149/128 92/167/139
f 122/193/153 34/81/57 132/195/154
f 134/78/73 31/173/16 121/190/152
f 132/195/154 34/81/57 42/83/63
f 133/101/90 104/202/129 40/91/72
f 136/137/117 20/213/36 124/143/122
f 124/143/122 97/51/50 136/137/117
f 142/36/35 58/120/108 95/116/104
f 95/116/104 124/153/122 142/36/35
f 76/208/66 97/232/50 123/206/114
f 123/206/114 25/233/67 126/207/155
f 131/169/141 130/171/143 42/64/63
f 122/198/153 128/174/144 131/169/141
f 133/101/90 127/103/92 121/203/152
f 92/167/139 87/149/128 17/87/79
f 138/168/140 149/118/106 143/109/98
f 2/147/126 137/119/107 149/118/106
f 140/85/77 150/39/38 135/41/40
