# Blender 4.4.1
# www.blender.org
mtllib rotateArrow.mtl
o 立方体.001
v 0.000000 -0.500000 1.500000
v 0.000000 0.500000 1.500000
v -0.800000 -0.500000 0.500000
v -0.800000 0.500000 0.500000
v 0.800000 -0.500000 0.500000
v 0.800000 0.500000 0.500000
v -0.500000 -0.500000 0.500000
v -0.500000 0.500000 0.500000
v -0.500000 -0.500000 -1.500000
v -0.500000 0.500000 -1.500000
v 0.500000 -0.500000 0.500000
v 0.500000 0.500000 0.500000
v 0.500000 -0.500000 -1.500000
v 0.500000 0.500000 -1.500000
vn -0.7809 -0.0000 0.6247
vn -0.0000 -0.0000 -1.0000
vn 0.7809 -0.0000 0.6247
vn -0.0000 -1.0000 -0.0000
vn -0.0000 1.0000 -0.0000
vn -1.0000 -0.0000 -0.0000
vn 1.0000 -0.0000 -0.0000
vt 0.844454 0.495492
vt 0.624052 0.391286
vt 0.811517 0.349106
vt 0.656989 0.537672
vt 0.750721 0.804811
vt 0.563256 0.654838
vt 0.844454 0.687645
vt 0.994500 0.495492
vt 0.994500 0.687645
vt 0.563256 0.846991
vt 0.536282 0.642381
vt 0.430184 0.324085
vt 0.642381 0.536282
vt 0.324085 0.430184
vt 0.324085 0.217987
vt 0.217987 0.324085
vt 0.111889 0.005790
vt 0.642381 0.111889
vt 0.005790 0.536282
vt 0.005790 0.111889
vt 0.536282 0.005790
vt 0.111888 0.642381
s 0
usemtl マテリアル
f 2/1/1 3/2/1 1/3/1
f 4/4/2 5/5/2 3/6/2
f 6/7/3 1/8/3 5/9/3
f 3/6/4 5/5/4 1/10/4
f 6/7/5 4/4/5 2/1/5
f 8/11/6 9/12/6 7/13/6
f 10/14/2 13/15/2 9/12/2
f 14/16/7 11/17/7 13/15/7
f 13/15/4 7/18/4 9/12/4
f 10/14/5 12/19/5 14/16/5
f 2/1/1 4/4/1 3/2/1
f 4/4/2 6/7/2 5/5/2
f 6/7/3 2/1/3 1/8/3
f 8/11/6 10/14/6 9/12/6
f 10/14/2 14/16/2 13/15/2
f 14/16/7 12/20/7 11/17/7
f 13/15/4 11/21/4 7/18/4
f 10/14/5 8/22/5 12/19/5
