# Blender 4.2.0
# www.blender.org
mtllib shark.mtl
o Cube
v 0.429105 0.353793 -0.985328
v 0.429105 -0.353793 -0.985328
v 0.429105 0.256759 0.985328
v 0.333243 -0.353793 0.799923
v -0.429105 0.353793 -0.985328
v -0.429105 -0.353793 -0.985328
v -0.429105 0.256759 0.985328
v -0.333243 -0.353793 0.799923
v -0.491697 -0.405399 -0.584595
v -0.523138 -0.431322 -0.000000
v -0.491697 -0.405399 0.584595
v 0.254588 -0.405399 -1.129053
v 0.000000 -0.431322 -1.201248
v -0.254588 -0.405399 -1.129053
v 0.491697 0.209905 -1.129053
v 0.523138 0.000000 -1.201249
v 0.491697 -0.209905 -1.129053
v -0.381852 -0.209905 0.943648
v -0.523138 -0.000000 1.201249
v -0.491697 0.112871 1.129053
v 0.491697 0.112871 1.129053
v 0.523138 0.000000 1.201248
v 0.381852 -0.209905 0.943648
v -0.491697 0.209905 -1.129053
v -0.523138 -0.000000 -1.201248
v -0.491697 -0.209905 -1.129053
v 0.254588 0.308365 1.129053
v -0.000000 0.334287 1.201249
v -0.254588 0.308365 1.129053
v 0.491697 0.405399 -0.584595
v 0.523138 0.431322 0.000000
v 0.491697 0.308365 0.584595
v -0.197713 -0.405399 0.943648
v -0.000000 -0.431322 1.114585
v 0.197713 -0.405399 0.943648
v -0.491697 0.308365 0.584595
v -0.523138 0.431322 -0.000000
v -0.491697 0.405399 -0.584595
v -0.254588 0.405399 -1.129053
v 0.000000 0.425857 -1.201248
v 0.254588 0.405399 -1.129053
v 0.491697 -0.405399 0.584595
v 0.523138 -0.431322 0.000000
v 0.491697 -0.405399 -0.584595
v 0.271329 0.515823 -0.623037
v 0.000000 0.547747 -0.656505
v -0.271329 0.515823 -0.623037
v 0.118082 0.553211 -0.505641
v -0.000000 1.157733 -0.737686
v -0.118082 0.553211 -0.505641
v 0.271329 0.418789 0.623037
v -0.000000 0.456177 0.150864
v -0.271329 0.418789 0.623037
v 0.210714 -0.223708 0.999752
v 0.285905 -0.000000 1.829012
v 0.271329 0.166102 1.436588
v -0.000000 -0.235726 1.289284
v 0.000000 0.000000 1.942674
v 0.000000 0.178119 1.540715
v -0.210714 -0.223708 0.999752
v -0.285905 0.000000 1.829012
v -0.271329 0.166102 1.436588
v -0.625627 -0.223708 0.623037
v -0.670974 -0.000000 0.656505
v -0.625627 0.126674 0.623037
v -0.670974 -0.235726 -0.000000
v -0.720473 0.000000 -0.000000
v -0.670974 0.235726 0.000000
v -0.625627 -0.223708 -0.623037
v -0.670974 0.000000 -0.656505
v -0.625627 0.223708 -0.623037
v -0.271329 -0.515823 -0.623037
v -0.000000 -0.553211 -0.656505
v 0.271329 -0.515823 -0.623037
v -0.285905 -0.553211 0.000000
v 0.000000 -0.594023 0.000000
v 0.285905 -0.553211 -0.000000
v -0.271329 -0.515823 0.623037
v 0.000000 -0.553211 0.656505
v 0.271329 -0.515823 0.623037
v 0.625627 -0.223708 -0.623037
v 0.670974 -0.000000 -0.656505
v 0.625627 0.223708 -0.623037
v 0.670974 -0.235726 0.000000
v 0.720473 0.000000 -0.000000
v 0.670974 0.235726 -0.000000
v 0.625627 -0.223708 0.623037
v 0.670974 0.000000 0.656505
v 0.625627 0.126674 0.623037
v -0.271329 -0.223708 -1.649358
v -0.286594 -0.031548 -1.754839
v -0.271329 0.223708 -1.649358
v 0.000000 -0.235726 -1.753485
v 0.000000 0.535516 -2.947613
v -0.000000 0.230261 -1.753485
v 0.271329 -0.223708 -1.649358
v 0.285216 -0.031548 -1.754839
v 0.271329 0.223708 -1.649358
v -0.278962 0.096080 -1.702098
v -0.001378 -0.598011 -2.952317
v -0.135665 -0.229717 -1.701421
v -0.143641 -0.031247 -2.215449
v 0.142263 -0.031247 -2.215449
v -0.000689 -0.031247 -2.520979
v -0.135665 0.229717 -1.701421
v -0.000689 -0.411520 -2.215449
v 0.000000 0.250318 -2.213097
v 0.135665 -0.229717 -1.701421
v 0.135665 0.229717 -1.701421
v 0.135665 0.132439 -2.122653
v -0.135665 0.132439 -2.122653
v 0.134976 -0.158923 -2.125005
v -0.136354 -0.158923 -2.125005
v -0.278962 -0.127628 -1.702098
v -0.000000 0.607531 -0.652705
v -0.000000 0.882632 -0.655765
v 0.064501 0.855472 -0.455515
v -0.064501 0.855472 -0.455515
v 0.507417 -0.418361 0.292297
v 0.648300 -0.229717 0.311518
v 0.558662 -0.314554 0.603816
v 0.597056 -0.333524 0.058611
v 1.233075 -0.464728 -0.162749
v -0.507417 -0.418361 0.292297
v -0.648300 -0.229717 0.311518
v -0.597056 -0.333524 0.058611
v -0.558662 -0.314554 0.603816
v -1.233075 -0.464728 -0.162749
v 1.015575 -0.412907 -0.099123
v -1.015575 -0.412907 -0.099123
v 0.970756 -0.455325 0.152885
v 1.041197 -0.361003 0.162496
v -0.970756 -0.455325 0.152885
v -1.041197 -0.361003 0.162496
v 0.895868 -0.403422 0.357554
v -0.895868 -0.403422 0.357554
vn 0.6114 0.7415 -0.2763
vn 0.6114 -0.7415 -0.2763
vn 0.6166 0.7456 0.2529
vn 0.5687 -0.6264 0.5331
vn -0.6114 0.7415 -0.2763
vn -0.6114 -0.7415 -0.2763
vn -0.6166 0.7456 0.2529
vn -0.5687 -0.6264 0.5331
vn -0.6312 -0.7656 -0.1240
vn -0.6310 -0.7757 -0.0019
vn -0.6232 -0.7452 0.2372
vn 0.3380 -0.9029 -0.2655
vn -0.0000 -0.9624 -0.2717
vn -0.3380 -0.9029 -0.2655
vn 0.8360 0.4615 -0.2970
vn 0.9464 0.0020 -0.3230
vn 0.8359 -0.4619 -0.2966
vn -0.3921 -0.7636 0.5130
vn -0.9107 -0.1554 0.3827
vn -0.7915 0.5209 0.3196
vn 0.7915 0.5209 0.3196
vn 0.9107 -0.1554 0.3827
vn 0.3921 -0.7636 0.5130
vn -0.8363 0.4593 -0.2993
vn -0.9462 0.0049 -0.3236
vn -0.8359 -0.4619 -0.2965
vn 0.3174 0.9031 0.2893
vn -0.0000 0.9616 0.2743
vn -0.3174 0.9031 0.2893
vn 0.6312 0.7656 -0.1240
vn 0.5550 0.8298 0.0583
vn 0.6446 0.7405 0.1902
vn -0.5544 -0.6904 0.4649
vn -0.0000 -0.8883 0.4593
vn 0.5544 -0.6904 0.4649
vn -0.6446 0.7405 0.1902
vn -0.5550 0.8298 0.0583
vn -0.6312 0.7656 -0.1240
vn -0.3288 0.9064 -0.2653
vn -0.0000 0.9626 -0.2710
vn 0.3288 0.9064 -0.2653
vn 0.6232 -0.7452 0.2372
vn 0.6310 -0.7757 -0.0019
vn 0.6312 -0.7656 -0.1240
vn 0.2911 0.9512 -0.1021
vn -0.0000 0.9065 -0.4223
vn -0.2911 0.9512 -0.1021
vn 0.4953 0.8665 -0.0625
vn -0.0000 0.9945 -0.1048
vn -0.4953 0.8665 -0.0625
vn 0.1923 0.9685 0.1580
vn -0.0000 0.9853 0.1707
vn -0.1923 0.9685 0.1580
vn 0.5254 -0.7256 0.4443
vn 0.7713 -0.1608 0.6158
vn 0.4418 0.8175 0.3696
vn -0.0000 -0.8976 0.4408
vn -0.0000 -0.1317 0.9913
vn -0.0000 0.9146 0.4044
vn -0.5254 -0.7256 0.4443
vn -0.7713 -0.1608 0.6158
vn -0.4418 0.8175 0.3696
vn -0.8449 -0.4886 0.2177
vn -0.9833 0.0805 0.1634
vn -0.8774 0.4485 0.1706
vn -0.9113 -0.4117 -0.0020
vn -0.9999 0.0124 0.0051
vn -0.8966 0.4416 0.0339
vn -0.8971 -0.4158 -0.1493
vn -0.9866 -0.0000 -0.1633
vn -0.8971 0.4158 -0.1493
vn -0.2980 -0.9457 -0.1298
vn -0.0000 -0.9908 -0.1352
vn 0.2980 -0.9457 -0.1298
vn -0.2991 -0.9542 -0.0000
vn -0.0000 -1.0000 -0.0000
vn 0.2991 -0.9542 -0.0000
vn -0.3344 -0.9207 0.2012
vn -0.0000 -0.9856 0.1690
vn 0.3344 -0.9207 0.2012
vn 0.8971 -0.4158 -0.1493
vn 0.9866 -0.0000 -0.1633
vn 0.8971 0.4158 -0.1493
vn 0.9113 -0.4117 -0.0020
vn 0.9999 0.0124 0.0051
vn 0.8966 0.4416 0.0339
vn 0.8449 -0.4886 0.2177
vn 0.9833 0.0805 0.1634
vn 0.8774 0.4485 0.1706
vn -0.5991 -0.7318 -0.3248
vn -0.9390 -0.0376 -0.3418
vn -0.6069 0.7172 -0.3426
vn 0.0009 -0.9926 -0.1217
vn 0.0004 0.9791 -0.2032
vn -0.0000 0.9783 -0.2070
vn 0.6006 -0.7300 -0.3260
vn 0.9386 -0.0372 -0.3431
vn 0.6021 0.7207 -0.3435
vn -0.9173 0.2027 -0.3429
vn -0.0011 -0.9733 -0.2294
vn -0.1361 -0.9618 -0.2376
vn -0.9566 -0.0114 -0.2913
vn 0.9564 -0.0150 -0.2918
vn -0.0000 0.0044 -1.0000
vn -0.1301 0.9535 -0.2720
vn 0.0012 -0.9619 0.2734
vn -0.0000 0.9695 0.2451
vn 0.1362 -0.9617 -0.2378
vn 0.1301 0.9535 -0.2720
vn 0.8511 0.5045 -0.1450
vn -0.8494 0.5079 -0.1435
vn 0.8784 -0.4636 -0.1165
vn -0.8783 -0.4640 -0.1153
vn -0.9096 -0.2520 -0.3302
vn -0.0000 0.2455 -0.9694
vn -0.0000 -0.1830 -0.9831
vn 0.9556 0.2881 0.0615
vn -0.9556 0.2881 0.0615
vn 0.4083 -0.9106 0.0633
vn 0.9884 0.1232 0.0892
vn 0.6578 -0.6133 0.4372
vn 0.7298 -0.6517 -0.2067
vn 0.9221 -0.3400 -0.1848
vn -0.4083 -0.9106 0.0633
vn -0.9884 0.1232 0.0892
vn -0.7298 -0.6517 -0.2067
vn -0.6578 -0.6133 0.4372
vn -0.9221 -0.3400 -0.1848
vn -0.2942 0.1290 -0.9470
vn 0.2942 0.1290 -0.9470
vn 0.0258 -0.9977 0.0632
vn 0.5565 0.8183 0.1440
vn -0.0258 -0.9977 0.0632
vn -0.5565 0.8183 0.1440
vn 0.4668 -0.5398 0.7005
vn -0.4668 -0.5398 0.7005
vt 0.250966 0.622283
vt 0.277817 0.632005
vt 0.277817 0.717622
vt 0.304668 0.622283
vt 0.692750 0.139326
vt 0.643486 0.223926
vt 0.719706 0.003269
vt 0.256073 0.289531
vt 0.160745 0.237113
vt 0.230828 0.229889
vt 0.378207 0.246345
vt 0.316089 0.247140
vt 0.352868 0.211935
vt 0.355306 0.283946
vt 0.282122 0.287201
vt 0.270828 0.359583
vt 0.318229 0.327504
vt 0.230907 0.378329
vt 0.238549 0.316568
vt 0.199468 0.349267
vt 0.165818 0.310555
vt 0.117190 0.272974
vt 0.094077 0.233114
vt 0.121422 0.195879
vt 0.162500 0.153605
vt 0.245699 0.161023
vt 0.209028 0.117400
vt 0.249061 0.094290
vt 0.286163 0.121675
vt 0.318142 0.174203
vt 0.287318 0.261574
vt 0.511852 0.893942
vt 0.520096 0.752866
vt 0.578810 0.780010
vt 0.144475 0.002467
vt 0.121879 0.108268
vt 0.069503 0.049842
vt 0.379171 0.763979
vt 0.491781 0.694698
vt 0.014278 0.119201
vt 0.623268 0.756139
vt 0.596353 0.733884
vt 0.630227 0.893942
vt 0.617655 0.802760
vt 0.254741 0.002467
vt 0.183950 0.067908
vt 0.252530 0.044452
vt 0.074994 0.165549
vt 0.044212 0.231101
vt 0.002295 0.228716
vt 0.376727 0.645548
vt 0.468246 0.656292
vt 0.514781 0.649757
vt 0.537568 0.676241
vt 0.562620 0.709493
vt 0.444926 0.474891
vt 0.507141 0.528538
vt 0.485880 0.555316
vt 0.058101 0.299941
vt 0.053553 0.398358
vt 0.012288 0.314480
vt 0.556074 0.483721
vt 0.163911 0.394585
vt 0.121897 0.458788
vt 0.469050 0.585653
vt 0.496652 0.598721
vt 0.118793 0.347574
vt 0.221307 0.424537
vt 0.200392 0.494248
vt 0.516968 0.416996
vt 0.615797 0.456695
vt 0.623268 0.503970
vt 0.589867 0.531581
vt 0.553155 0.569067
vt 0.527051 0.553739
vt 0.628289 0.567046
vt 0.630382 0.640408
vt 0.592239 0.604331
vt 0.703790 0.641104
vt 0.668070 0.601992
vt 0.558967 0.641951
vt 0.630212 0.711828
vt 0.593823 0.677676
vt 0.662892 0.525170
vt 0.745045 0.605681
vt 0.708171 0.561090
vt 0.767030 0.644968
vt 0.739975 0.678876
vt 0.667183 0.677852
vt 0.683851 0.733119
vt 0.662821 0.748015
vt 0.522143 0.610029
vt 0.536644 0.588702
vt 0.788388 0.711824
vt 0.799100 0.822480
vt 0.744483 0.761464
vt 0.401836 0.181687
vt 0.418145 0.072194
vt 0.470752 0.147208
vt 0.718805 0.872015
vt 0.688193 0.800567
vt 0.718151 0.783179
vt 0.319529 0.065841
vt 0.339060 0.021799
vt 0.814567 0.651683
vt 0.855415 0.749669
vt 0.424859 0.241855
vt 0.496906 0.229851
vt 0.360189 0.131547
vt 0.674606 0.773259
vt 0.703164 0.716256
vt 0.718954 0.742046
vt 0.112228 0.645271
vt 0.099180 0.607419
vt 0.264480 0.707436
vt 0.306974 0.431956
vt 0.342689 0.415287
vt 0.377225 0.471089
vt 0.888996 0.561660
vt 0.843971 0.490023
vt 0.893942 0.484375
vt 0.067791 0.997971
vt 0.035021 0.884692
vt 0.062363 0.842464
vt 0.598039 0.385367
vt 0.703548 0.381931
vt 0.703876 0.418159
vt 0.305103 0.477039
vt 0.379065 0.395452
vt 0.423719 0.328094
vt 0.402907 0.361663
vt 0.515559 0.333575
vt 0.816904 0.563519
vt 0.796548 0.528854
vt 0.738256 0.472141
vt 0.772470 0.495174
vt 0.099192 0.807567
vt 0.775030 0.423663
vt 0.168125 0.707497
vt 0.703400 0.452853
vt 0.112208 0.769707
vt 0.096028 0.707605
vt 0.062371 0.572478
vt 0.067664 0.416955
vt 0.453851 0.402341
vt 0.002047 0.568508
vt 0.034990 0.530271
vt 0.002047 0.846487
vt 0.302103 0.524921
vt 0.378275 0.534249
vt 0.139716 0.834900
vt 0.139657 0.580010
vt 0.276096 0.280464
vt 0.656941 0.126957
vt 0.643486 0.035248
vt 0.277817 0.548414
vt 0.245311 0.531107
vt 0.534150 0.116479
vt 0.489839 0.176320
vt 0.534724 0.085376
vt 0.541544 0.147465
vt 0.469655 0.115518
vt 0.501640 0.108249
vt 0.581756 0.216597
vt 0.537446 0.156757
vt 0.589150 0.185612
vt 0.582330 0.247701
vt 0.624173 0.077200
vt 0.614953 0.034920
vt 0.521521 0.006938
vt 0.474007 0.003359
vt 0.549246 0.224827
vt 0.521613 0.329718
vt 0.517261 0.217558
vt 0.671779 0.255877
vt 0.662559 0.298157
vt 0.569127 0.326138
vt 0.620260 0.329718
vt 0.572654 0.003359
vt 0.759939 0.075473
vt 0.435294 0.839412
vt 0.396874 0.556399
vt 0.885586 0.668628
vt 0.516617 0.410473
vt 0.778954 0.374625
vt 0.310323 0.531107
s 1
usemtl Material
f 117/1/117 116/2/116 49/3/49
f 116/2/116 118/4/118 49/3/49
f 117/5/117 49/6/49 52/7/52
f 50/8/50 53/9/53 52/10/52
f 1/11/1 45/12/45 30/13/30
f 41/14/41 46/15/46 45/12/45
f 39/16/39 46/15/46 40/17/40
f 5/18/5 47/19/47 39/16/39
f 47/19/47 38/20/38 37/21/37
f 37/21/37 36/22/36 53/9/53
f 53/9/53 7/23/7 29/24/29
f 53/9/53 28/25/28 52/10/52
f 51/26/51 28/25/28 27/27/27
f 51/26/51 3/28/3 32/29/32
f 31/30/31 48/31/48 51/26/51
f 45/12/45 48/31/48 31/30/31
f 55/32/55 57/33/57 54/34/54
f 55/35/55 59/36/59 58/37/58
f 57/33/57 61/38/61 60/39/60
f 59/36/59 61/40/61 58/37/58
f 4/41/4 54/34/54 35/42/35
f 22/43/22 54/34/54 23/44/23
f 22/45/22 56/46/56 55/35/55
f 3/28/3 56/46/56 21/47/21
f 27/27/27 59/36/59 56/46/56
f 59/36/59 29/24/29 62/48/62
f 62/48/62 7/23/7 20/49/20
f 62/48/62 19/50/19 61/40/61
f 60/39/60 19/51/19 18/52/18
f 60/39/60 8/53/8 33/54/33
f 57/33/57 33/54/33 34/55/34
f 35/42/35 57/33/57 34/55/34
f 67/56/67 66/57/66 125/58/125
f 65/59/65 67/60/67 64/61/64
f 67/56/67 69/62/69 66/57/66
f 67/60/67 71/63/71 70/64/70
f 18/52/18 63/65/63 127/66/127
f 19/51/19 63/65/63 18/52/18
f 20/49/20 64/61/64 19/50/19
f 7/23/7 65/59/65 20/49/20
f 36/22/36 68/67/68 65/59/65
f 68/67/68 38/20/38 71/63/71
f 71/63/71 5/18/5 24/68/24
f 70/64/70 24/68/24 25/69/25
f 70/70/70 26/71/26 69/62/69
f 69/62/69 6/72/6 9/73/9
f 10/74/10 126/75/126 66/57/66
f 126/75/126 125/58/125 66/57/66
f 72/76/72 76/77/76 75/78/75
f 74/79/74 76/77/76 73/80/73
f 76/77/76 78/81/78 75/78/75
f 76/77/76 80/82/80 79/83/79
f 6/72/6 72/76/72 9/73/9
f 14/84/14 73/80/73 72/76/72
f 12/85/12 73/80/73 13/86/13
f 2/87/2 74/79/74 12/85/12
f 44/88/44 77/89/77 74/79/74
f 119/90/119 42/91/42 80/82/80
f 80/82/80 4/41/4 35/42/35
f 79/83/79 35/42/35 34/55/34
f 79/83/79 33/54/33 78/81/78
f 78/81/78 8/53/8 11/92/11
f 78/81/78 11/92/11 124/93/124
f 9/73/9 75/78/75 10/74/10
f 81/94/81 85/95/85 84/96/84
f 83/97/83 85/98/85 82/99/82
f 88/100/88 87/101/87 120/102/120
f 85/98/85 89/103/89 88/104/88
f 2/87/2 81/94/81 44/88/44
f 17/105/17 82/106/82 81/94/81
f 15/107/15 82/99/82 16/108/16
f 1/11/1 83/97/83 15/107/15
f 30/13/30 86/109/86 83/97/83
f 86/109/86 32/29/32 89/103/89
f 89/103/89 3/28/3 21/47/21
f 88/104/88 21/47/21 22/45/22
f 87/101/87 22/43/22 23/44/23
f 121/110/121 23/44/23 4/41/4
f 121/110/121 120/102/120 87/101/87
f 43/111/43 84/96/84 122/112/122
f 113/113/113 102/114/102 100/115/100
f 92/116/92 105/117/105 111/118/111
f 97/119/97 112/120/112 103/121/103
f 94/122/94 107/123/107 110/124/110
f 26/71/26 14/84/14 6/72/6
f 25/125/25 91/126/91 114/127/114
f 24/68/24 92/116/92 99/128/99
f 24/68/24 39/16/39 92/116/92
f 40/17/40 95/129/95 105/117/105
f 41/14/41 98/130/98 109/131/109
f 41/14/41 15/107/15 98/130/98
f 98/130/98 16/108/16 97/132/97
f 97/119/97 17/105/17 96/133/96
f 12/85/12 17/105/17 2/87/2
f 108/134/108 96/133/96 12/85/12
f 101/135/101 93/136/93 13/86/13
f 103/137/103 94/122/94 110/124/110
f 99/128/99 92/116/92 111/118/111
f 101/135/101 113/138/113 93/136/93
f 112/120/112 108/134/108 93/136/93
f 106/139/106 113/113/113 100/115/100
f 101/135/101 90/140/90 113/138/113
f 108/134/108 112/120/112 96/133/96
f 106/139/106 112/141/112 93/142/93
f 106/139/106 100/115/100 112/141/112
f 102/114/102 111/143/111 94/144/94
f 110/145/110 109/131/109 98/130/98
f 95/146/95 107/147/107 111/143/111
f 111/143/111 107/147/107 94/144/94
f 107/123/107 95/148/95 110/124/110
f 105/117/105 95/129/95 111/118/111
f 90/140/90 114/127/114 113/138/113
f 97/132/97 110/145/110 98/130/98
f 100/115/100 103/137/103 112/141/112
f 91/149/91 111/118/111 102/150/102
f 91/126/91 113/138/113 114/127/114
f 94/122/94 103/137/103 104/151/104
f 100/115/100 102/114/102 104/152/104
f 102/114/102 94/144/94 104/152/104
f 103/137/103 100/115/100 104/151/104
f 46/15/46 48/31/48 45/12/45
f 46/15/46 50/8/50 115/153/115
f 51/26/51 48/31/48 52/10/52
f 118/154/118 50/155/50 52/7/52
f 115/156/115 117/1/117 48/157/48
f 115/156/115 118/4/118 116/2/116
f 131/158/131 123/159/123 135/160/135
f 131/158/131 129/161/129 123/159/123
f 129/162/129 132/163/132 123/159/123
f 133/164/133 128/165/128 130/166/130
f 136/167/136 128/165/128 133/164/133
f 127/66/127 63/65/63 125/58/125
f 122/112/122 84/96/84 120/102/120
f 122/168/122 131/158/131 119/169/119
f 120/170/120 135/160/135 132/163/132
f 42/91/42 119/90/119 121/110/121
f 122/171/122 132/163/132 129/162/129
f 43/111/43 122/112/122 119/90/119
f 10/74/10 124/93/124 126/75/126
f 134/172/134 126/173/126 130/174/130
f 133/164/133 126/175/126 124/176/124
f 128/165/128 134/172/134 130/174/130
f 44/88/44 84/96/84 43/111/43
f 9/73/9 66/57/66 69/62/69
f 136/167/136 125/177/125 134/172/134
f 11/92/11 127/66/127 124/93/124
f 128/165/128 136/167/136 134/172/134
f 136/167/136 124/176/124 127/178/127
f 123/159/123 132/163/132 135/160/135
f 119/169/119 135/160/135 121/179/121
f 95/129/95 109/131/109 110/145/110
f 50/8/50 37/21/37 53/9/53
f 32/29/32 31/30/31 51/26/51
f 30/13/30 45/12/45 31/30/31
f 50/8/50 47/19/47 37/21/37
f 113/113/113 106/139/106 93/142/93
f 49/6/49 118/154/118 52/7/52
f 48/180/48 117/5/117 52/7/52
f 1/11/1 41/14/41 45/12/45
f 41/14/41 40/17/40 46/15/46
f 39/16/39 47/19/47 46/15/46
f 5/18/5 38/20/38 47/19/47
f 53/9/53 36/22/36 7/23/7
f 53/9/53 29/24/29 28/25/28
f 51/26/51 52/10/52 28/25/28
f 51/26/51 27/27/27 3/28/3
f 55/32/55 58/181/58 57/33/57
f 55/35/55 56/46/56 59/36/59
f 57/33/57 58/181/58 61/38/61
f 59/36/59 62/48/62 61/40/61
f 4/41/4 23/44/23 54/34/54
f 22/43/22 55/32/55 54/34/54
f 22/45/22 21/47/21 56/46/56
f 3/28/3 27/27/27 56/46/56
f 27/27/27 28/25/28 59/36/59
f 59/36/59 28/25/28 29/24/29
f 62/48/62 29/24/29 7/23/7
f 62/48/62 20/49/20 19/50/19
f 60/39/60 61/38/61 19/51/19
f 60/39/60 18/52/18 8/53/8
f 57/33/57 60/39/60 33/54/33
f 35/42/35 54/34/54 57/33/57
f 125/58/125 63/65/63 64/182/64
f 64/182/64 67/56/67 125/58/125
f 65/59/65 68/67/68 67/60/67
f 67/56/67 70/70/70 69/62/69
f 67/60/67 68/67/68 71/63/71
f 11/92/11 8/53/8 127/66/127
f 8/53/8 18/52/18 127/66/127
f 19/51/19 64/182/64 63/65/63
f 20/49/20 65/59/65 64/61/64
f 7/23/7 36/22/36 65/59/65
f 36/22/36 37/21/37 68/67/68
f 68/67/68 37/21/37 38/20/38
f 71/63/71 38/20/38 5/18/5
f 70/64/70 71/63/71 24/68/24
f 70/70/70 25/125/25 26/71/26
f 69/62/69 26/71/26 6/72/6
f 72/76/72 73/80/73 76/77/76
f 74/79/74 77/89/77 76/77/76
f 76/77/76 79/83/79 78/81/78
f 76/77/76 77/89/77 80/82/80
f 6/72/6 14/84/14 72/76/72
f 14/84/14 13/86/13 73/80/73
f 12/85/12 74/79/74 73/80/73
f 2/87/2 44/88/44 74/79/74
f 44/88/44 43/111/43 77/89/77
f 80/82/80 77/89/77 119/90/119
f 77/89/77 43/111/43 119/90/119
f 80/82/80 42/91/42 4/41/4
f 79/83/79 80/82/80 35/42/35
f 79/83/79 34/55/34 33/54/33
f 78/81/78 33/54/33 8/53/8
f 124/93/124 10/74/10 75/78/75
f 75/78/75 78/81/78 124/93/124
f 9/73/9 72/76/72 75/78/75
f 81/94/81 82/106/82 85/95/85
f 83/97/83 86/109/86 85/98/85
f 120/102/120 84/96/84 85/95/85
f 85/95/85 88/100/88 120/102/120
f 85/98/85 86/109/86 89/103/89
f 2/87/2 17/105/17 81/94/81
f 17/105/17 16/183/16 82/106/82
f 15/107/15 83/97/83 82/99/82
f 1/11/1 30/13/30 83/97/83
f 30/13/30 31/30/31 86/109/86
f 86/109/86 31/30/31 32/29/32
f 89/103/89 32/29/32 3/28/3
f 88/104/88 89/103/89 21/47/21
f 87/101/87 88/100/88 22/43/22
f 4/41/4 42/91/42 121/110/121
f 121/110/121 87/101/87 23/44/23
f 97/119/97 96/133/96 112/120/112
f 26/71/26 90/140/90 14/84/14
f 90/140/90 26/71/26 114/127/114
f 26/71/26 25/125/25 114/127/114
f 91/149/91 25/69/25 99/128/99
f 25/69/25 24/68/24 99/128/99
f 24/68/24 5/18/5 39/16/39
f 105/117/105 92/116/92 39/16/39
f 39/16/39 40/17/40 105/117/105
f 109/131/109 95/129/95 40/17/40
f 40/17/40 41/14/41 109/131/109
f 41/14/41 1/11/1 15/107/15
f 98/130/98 15/107/15 16/108/16
f 97/119/97 16/183/16 17/105/17
f 12/85/12 96/133/96 17/105/17
f 12/85/12 13/86/13 108/134/108
f 13/86/13 93/136/93 108/134/108
f 13/86/13 14/84/14 101/135/101
f 14/84/14 90/140/90 101/135/101
f 97/132/97 103/184/103 110/145/110
f 91/149/91 99/128/99 111/118/111
f 91/126/91 102/185/102 113/138/113
f 46/15/46 115/153/115 48/31/48
f 46/15/46 47/19/47 50/8/50
f 115/156/115 116/2/116 117/1/117
f 115/156/115 50/186/50 118/4/118
f 122/168/122 129/161/129 131/158/131
f 120/170/120 121/179/121 135/160/135
f 122/171/122 120/170/120 132/163/132
f 134/172/134 125/177/125 126/173/126
f 133/164/133 130/166/130 126/175/126
f 44/88/44 81/94/81 84/96/84
f 9/73/9 10/74/10 66/57/66
f 136/167/136 127/178/127 125/177/125
f 136/167/136 133/164/133 124/176/124
f 119/169/119 131/158/131 135/160/135
