# Wavefront OBJ: slope.obj (Wedge Slope)
# Dimensions: X [-1.0, 1.0], Y [0.0, 1.0], Z [-2.0, 2.0]
o Slope

# Vertices
v -1.000000 0.000000 2.000000
v 1.000000 0.000000 2.000000
v 1.000000 0.000000 -2.000000
v -1.000000 0.000000 -2.000000
v -1.000000 1.000000 -2.000000
v 1.000000 1.000000 -2.000000

# Texture coordinates
vt 0.000000 0.000000
vt 1.000000 0.000000
vt 1.000000 1.000000
vt 0.000000 1.000000

# Normals
# 1: Slope face normal (up-forward)
vn 0.000000 0.970143 0.242536
# 2: Bottom face normal (down)
vn 0.000000 -1.000000 0.000000
# 3: Back face normal (back)
vn 0.000000 0.000000 -1.000000
# 4: Left face normal (left)
vn -1.000000 0.000000 0.000000
# 5: Right face normal (right)
vn 1.000000 0.000000 0.000000

# Faces (v/vt/vn)
# Slope face (triangulated)
f 1/1/1 2/2/1 6/3/1
f 1/1/1 6/3/1 5/4/1

# Bottom face
f 4/1/2 3/2/2 2/3/2
f 4/1/2 2/3/2 1/4/2

# Back face
f 3/1/3 4/2/3 5/3/3
f 3/1/3 5/3/3 6/4/3

# Left side
f 1/1/4 5/2/4 4/3/4

# Right side
f 2/1/5 3/2/5 6/3/5
