# Blender 4.2.0
# www.blender.org
mtllib TentativeStage.mtl
o 平面
v -15.000000 -0.500000 15.000000
v 15.000000 -0.500000 15.000000
v -15.000000 -0.500000 -15.000000
v 15.000000 -0.500000 -15.000000
v -13.000000 -0.500000 15.000000
v -11.000000 -0.500000 15.000000
v -9.000000 -0.500000 15.000000
v -7.000000 -0.500000 15.000000
v -5.000000 -0.500000 15.000000
v -3.000000 -0.500000 15.000000
v -1.000000 -0.500000 15.000000
v 1.000000 -0.500000 15.000000
v 3.000000 -0.500000 15.000000
v 5.000000 -0.500000 15.000000
v 7.000000 -0.500000 15.000000
v 9.000000 -0.500000 15.000000
v 11.000000 -0.500000 15.000000
v 13.000000 -0.500000 15.000000
v 13.000000 -0.500000 -15.000000
v 11.000000 -0.500000 -15.000000
v 9.000000 -0.500000 -15.000000
v 7.000000 -0.500000 -15.000000
v 5.000000 -0.500000 -15.000000
v 3.000000 -0.500000 -15.000000
v 1.000000 -0.500000 -15.000000
v -1.000000 -0.500000 -15.000000
v -3.000000 -0.500000 -15.000000
v -5.000000 -0.500000 -15.000000
v -7.000000 -0.500000 -15.000000
v -9.000000 -0.500000 -15.000000
v -11.000000 -0.500000 -15.000000
v -13.000000 -0.500000 -15.000000
v -15.000000 -0.500000 -13.000000
v -15.000000 -0.500000 -11.000000
v -15.000000 -0.500000 -9.000000
v -15.000000 -0.500000 -7.000000
v -15.000000 -0.500000 -5.000000
v -15.000000 -0.500000 -3.000000
v -15.000000 -0.500000 -1.000000
v -15.000000 -0.500000 1.000000
v -15.000000 -0.500000 3.000000
v -15.000000 -0.500000 5.000000
v -15.000000 -0.500000 7.000000
v -15.000000 -0.500000 9.000000
v -15.000000 -0.500000 11.000000
v -15.000000 -0.500000 13.000000
v 15.000000 -0.500000 13.000000
v 15.000000 -0.500000 11.000000
v 15.000000 -0.500000 9.000000
v 15.000000 -0.500000 7.000000
v 15.000000 -0.500000 5.000000
v 15.000000 -0.500000 3.000000
v 15.000000 -0.500000 1.000000
v 15.000000 -0.500000 -1.000000
v 15.000000 -0.500000 -3.000000
v 15.000000 -0.500000 -5.000000
v 15.000000 -0.500000 -7.000000
v 15.000000 -0.500000 -9.000000
v 15.000000 -0.500000 -11.000000
v 15.000000 -0.500000 -13.000000
v -13.000000 -0.500000 13.000000
v -13.000000 -0.500000 11.000000
v -13.000000 -0.500000 9.000000
v -13.000000 -0.500000 7.000000
v -13.000000 -0.500000 5.000000
v -13.000000 -0.500000 3.000000
v -13.000000 -0.500000 1.000000
v -13.000000 -0.500000 -1.000000
v -13.000000 -0.500000 -3.000000
v -13.000000 -0.500000 -5.000000
v -13.000000 -0.500000 -7.000000
v -13.000000 -0.500000 -9.000000
v -13.000000 -0.500000 -11.000000
v -13.000000 -0.500000 -13.000000
v -11.000000 -0.500000 13.000000
v -11.000000 -1.877734 11.000000
v -11.000000 -1.877734 9.000000
v -11.000000 -0.500000 7.000000
v -11.000000 -0.500000 5.000000
v -11.000000 -0.500000 3.000000
v -11.000000 -0.500000 1.000000
v -11.000000 -0.500000 -1.000000
v -11.000000 -0.500000 -3.000000
v -11.000000 -0.500000 -5.000000
v -11.000000 -0.500000 -7.000000
v -11.000000 1.387680 -9.000000
v -11.000000 1.387680 -11.000000
v -11.000000 -0.500000 -13.000000
v -9.000000 -0.500000 13.000000
v -9.000000 -1.877734 11.000000
v -9.000000 -0.500000 9.000000
v -9.000000 -0.500000 7.000000
v -9.000000 1.186294 5.000000
v -9.000000 -0.500000 3.000000
v -9.000000 -0.500000 1.000000
v -9.000000 -0.500000 -1.000000
v -9.000000 -0.500000 -3.000000
v -9.000000 -0.500000 -5.000000
v -9.000000 -0.500000 -7.000000
v -9.000000 1.387680 -9.000000
v -9.000000 -0.500000 -11.000000
v -9.000000 -0.500000 -13.000000
v -7.000000 -0.500000 13.000000
v -7.000000 -0.500000 11.000000
v -7.000000 -0.500000 9.000000
v -7.000000 1.186294 7.000000
v -7.000000 1.186294 5.000000
v -7.000000 -0.500000 3.000000
v -7.000000 -0.500000 1.000000
v -7.000000 -0.500000 -1.000000
v -7.000000 -0.500000 -3.000000
v -7.000000 0.197955 -5.000000
v -7.000000 -0.500000 -7.000000
v -7.000000 -0.500000 -9.000000
v -7.000000 -0.500000 -11.000000
v -5.967217 1.497100 -13.998530
v -5.000000 0.585247 13.000000
v -5.000000 0.585247 11.000000
v -5.000000 -0.500000 9.000000
v -5.000000 -0.500000 7.000000
v -5.000000 -0.500000 5.000000
v -5.000000 -0.500000 3.000000
v -5.000000 0.130035 1.000000
v -5.000000 -0.500000 -1.000000
v -5.000000 -0.500000 -3.000000
v -5.000000 0.959275 -5.000000
v -5.000000 0.959275 -7.000000
v -5.000000 -0.500000 -9.000000
v -3.967217 1.497100 -11.998530
v -3.967217 1.497100 -13.998530
v -3.000000 0.585247 13.000000
v -3.000000 -0.500000 11.000000
v -3.000000 0.316015 9.000000
v -3.000000 0.316015 7.000000
v -3.000000 -0.500000 5.000000
v -3.000000 0.130035 3.000000
v -3.000000 0.130035 1.000000
v -3.000000 -0.500000 -1.000000
v -3.000000 -0.500000 -3.000000
v -3.000000 0.959275 -5.000000
v -3.000000 -0.500000 -7.000000
v -3.000000 -0.500000 -9.000000
v -3.000000 -0.500000 -11.000000
v -3.000000 -0.500000 -13.000000
v -1.000000 -0.500000 13.000000
v -1.000000 -0.500000 11.000000
v -1.000000 0.316015 9.000000
v -1.000000 -0.500000 7.000000
v -1.000000 -0.500000 5.000000
v -1.000000 -0.500000 3.000000
v -1.000000 -0.500000 1.000000
v -1.000000 -0.500000 -1.000000
v -1.000000 -0.500000 -3.000000
v -1.000000 -0.500000 -5.000000
v -1.000000 1.483829 -7.000000
v -1.000000 1.483829 -9.000000
v -1.000000 -0.500000 -11.000000
v -1.000000 -0.500000 -13.000000
v 1.000000 -0.500000 13.000000
v 1.000000 -1.427307 11.000000
v 1.000000 -0.500000 9.000000
v 1.000000 -0.500000 7.000000
v 1.000000 -0.500000 5.000000
v 1.000000 -0.500000 3.000000
v 1.000000 -0.500000 1.000000
v 1.000000 1.226520 -1.000000
v 1.000000 0.170181 -3.000000
v 1.000000 -0.500000 -5.000000
v 1.000000 1.483829 -7.000000
v 1.000000 -0.500000 -9.000000
v 1.000000 -0.500000 -11.000000
v 1.000000 -2.152297 -13.000000
v 3.000000 -1.427307 13.000000
v 3.000000 -1.427307 11.000000
v 3.000000 -0.500000 9.000000
v 3.000000 -0.500000 7.000000
v 3.000000 -0.500000 5.000000
v 3.000000 -0.500000 3.000000
v 3.000000 0.556338 1.000000
v 3.000000 1.226520 -1.000000
v 3.000000 0.170181 -3.000000
v 3.000000 -0.500000 -5.000000
v 3.000000 -0.500000 -7.000000
v 3.000000 -0.500000 -9.000000
v 3.000000 -2.152297 -11.000000
v 3.000000 -2.152297 -13.000000
v 5.000000 -0.500000 13.000000
v 5.000000 -0.500000 11.000000
v 5.000000 -0.500000 9.000000
v 5.000000 1.340889 7.000000
v 5.000000 -0.500000 5.000000
v 5.000000 -0.500000 3.000000
v 5.000000 -0.500000 1.000000
v 5.000000 -0.500000 -1.000000
v 5.000000 -0.500000 -3.000000
v 5.000000 -0.500000 -5.000000
v 5.000000 1.056180 -7.000000
v 5.000000 -0.500000 -9.000000
v 5.000000 -0.500000 -11.000000
v 5.000000 -0.500000 -13.000000
v 7.000000 -0.500000 13.000000
v 7.000000 -0.500000 11.000000
v 7.000000 1.340889 9.000000
v 7.000000 1.340889 7.000000
v 7.000000 -0.500000 5.000000
v 7.000000 0.993694 3.000000
v 7.000000 0.993694 1.000000
v 7.000000 -0.500000 -1.000000
v 7.000000 -0.500000 -3.000000
v 7.000000 1.056180 -5.000000
v 7.000000 1.056180 -7.000000
v 7.000000 -0.500000 -9.000000
v 7.000000 -0.500000 -11.000000
v 7.000000 -0.500000 -13.000000
v 9.000000 -0.500000 13.000000
v 9.000000 -0.500000 11.000000
v 9.000000 -0.500000 9.000000
v 9.000000 -0.500000 7.000000
v 9.000000 -0.500000 5.000000
v 9.000000 0.993694 3.000000
v 9.000000 -0.500000 1.000000
v 9.000000 -0.500000 -1.000000
v 9.000000 -0.500000 -3.000000
v 9.000000 -0.500000 -5.000000
v 9.000000 -0.500000 -7.000000
v 9.000000 -1.591161 -9.000000
v 9.000000 -1.591161 -11.000000
v 9.000000 -0.500000 -13.000000
v 11.000000 -0.500000 13.000000
v 11.000000 -0.500000 11.000000
v 11.000000 -2.216426 9.000000
v 11.000000 -0.500000 7.000000
v 11.000000 -0.500000 5.000000
v 11.000000 -0.500000 3.000000
v 11.000000 -0.500000 1.000000
v 11.000000 -0.500000 -1.000000
v 11.000000 -1.810469 -3.000000
v 11.000000 -1.810469 -5.000000
v 11.000000 -0.500000 -7.000000
v 11.000000 -1.591161 -9.000000
v 11.000000 -0.500000 -11.000000
v 11.000000 -2.475030 -13.000000
v 13.000000 -0.500000 13.000000
v 13.000000 -2.216426 11.000000
v 13.000000 -2.216426 9.000000
v 13.000000 -0.500000 7.000000
v 13.000000 -0.500000 5.000000
v 13.000000 -0.500000 3.000000
v 13.000000 -0.500000 1.000000
v 13.000000 -0.500000 -1.000000
v 13.000000 -1.810469 -3.000000
v 13.000000 -1.810469 -5.000000
v 13.000000 -0.500000 -7.000000
v 13.000000 -0.500000 -9.000000
v 13.000000 -2.475030 -11.000000
v 13.000000 -2.475030 -13.000000
vn -0.5749 0.5822 0.5749
vn -0.0000 1.0000 -0.0000
vn -0.5500 0.8352 -0.0000
vn -0.0000 0.4483 -0.8939
vn 0.7071 -0.0111 -0.7071
vn 0.6369 0.7709 -0.0000
vn -0.0000 0.7709 0.6369
vn -0.5372 0.6503 0.5372
vn 0.7027 0.7115 -0.0000
vn -0.0000 0.7115 0.7027
vn 0.5457 0.6359 -0.5457
vn -0.0000 0.7589 0.6513
vn -0.0000 0.8364 -0.5481
vn -0.0000 0.8364 0.5481
vn -0.0000 0.8778 -0.4789
vn -0.4320 0.7917 0.4320
vn 0.5749 0.5822 -0.5749
vn 0.6513 0.7589 -0.0000
vn -0.0000 0.8012 0.5984
vn 0.5135 0.6875 -0.5135
vn 0.5481 0.8364 -0.0000
vn -0.0000 0.7358 0.6772
vn 0.6772 0.7358 -0.0000
vn 0.5607 0.6092 -0.5607
vn -0.0000 0.7892 0.6141
vn 0.6141 0.7892 -0.0000
vn 0.5233 0.6725 -0.5233
vn 0.4789 0.8778 -0.0000
vn -0.5607 0.6092 0.5607
vn -0.0000 0.7358 -0.6772
vn -0.5984 0.8012 -0.0000
vn -0.5233 0.6725 0.5233
vn -0.0000 0.7892 -0.6141
vn -0.0000 0.9072 -0.4206
vn -0.4206 0.9072 -0.0000
vn -0.3877 0.8363 0.3877
vn -0.6772 0.7358 -0.0000
vn -0.0000 0.8842 0.4670
vn 0.4478 0.8478 0.2841
vn 0.6068 0.7029 -0.3712
vn 0.3028 0.9037 -0.3028
vn -0.6141 0.7892 -0.0000
vn -0.0000 0.7709 -0.6369
vn -0.6369 0.7709 -0.0000
vn 0.3877 0.8363 -0.3877
vn -0.0000 0.9072 0.4206
vn -0.3712 0.7029 0.6068
vn -0.0000 0.8842 -0.4670
vn -0.0000 0.9482 -0.3177
vn -0.0000 0.7100 0.7042
vn 0.5758 0.5805 -0.5758
vn 0.5372 0.6503 -0.5372
vn 0.3945 0.8508 0.3471
vn 0.3534 0.8662 -0.3534
vn -0.6535 0.7570 -0.0000
vn -0.3177 0.9482 -0.0000
vn -0.0000 0.8789 0.4769
vn 0.4305 0.7933 -0.4305
vn -0.0000 0.9259 0.3778
vn -0.0000 0.9538 0.3005
vn 0.3005 0.9538 -0.0000
vn 0.2878 0.9135 -0.2878
vn -0.0000 0.8078 0.5894
vn 0.5078 0.6959 -0.5078
vn -0.7042 0.7100 -0.0000
vn -0.3778 0.9259 -0.0000
vn -0.2878 0.9135 0.2878
vn -0.0000 0.9538 -0.3005
vn -0.0000 0.8323 0.5543
vn 0.9000 0.4359 -0.0000
vn -0.4769 0.8789 -0.0000
vn -0.0000 0.7645 0.6446
vn 0.6446 0.7645 -0.0000
vn 0.5418 0.6426 -0.5418
vn -0.3005 0.9538 -0.0000
vn -0.0000 0.9442 0.3295
vn -0.3382 0.8885 -0.3101
vn -0.5894 0.8078 -0.0000
vn -0.4057 0.8190 0.4057
vn -0.0000 0.8235 -0.5673
vn -0.4934 0.7163 0.4934
vn -0.5418 0.6426 0.5418
vn -0.0000 0.7645 -0.6446
vn -0.3295 0.9442 -0.0000
vn -0.0000 0.7272 0.6864
vn 0.5659 0.5996 -0.5659
vn -0.6446 0.7645 -0.0000
vn 0.5673 0.8235 -0.0000
vn -0.6864 0.7272 -0.0000
vn -0.0000 0.7589 -0.6513
vn -0.6513 0.7589 -0.0000
vn -0.5457 0.6359 0.5457
vn -0.5481 0.8364 -0.0000
vn -0.4806 0.7335 0.4806
vn -0.0000 0.7115 -0.7027
vn -0.7027 0.7115 -0.0000
vn -0.4789 0.8778 -0.0000
vn 0.5984 0.8012 -0.0000
vn 0.4806 0.7335 -0.4806
vn 0.4320 0.7917 -0.4320
vn -0.0000 0.8778 0.4789
vn -0.5135 0.6875 0.5135
vn -0.0000 0.8012 -0.5984
vn 0.4670 0.8842 -0.0000
vn 0.6535 0.7570 -0.0000
vn 0.3177 0.9482 -0.0000
vn -0.4232 0.8012 0.4232
vn -0.0000 0.9482 0.3177
vn 0.7042 0.7100 -0.0000
vn 0.3471 0.8508 0.3945
vn -0.5470 0.6337 0.5470
vn -0.2841 0.8478 -0.4478
vn 0.4769 0.8789 -0.0000
vn 0.5894 0.8078 -0.0000
vn -0.5758 0.5805 0.5758
vn -0.0000 0.7100 -0.7042
vn -0.3534 0.8662 0.3534
vn -0.0000 0.9259 -0.3778
vn -0.4305 0.7933 0.4305
vn -0.0000 0.8789 -0.4769
vn -0.2939 0.7721 0.5634
vn -0.0000 0.8078 -0.5894
vn -0.5673 0.8235 -0.0000
vn -0.3129 0.8967 0.3129
vn -0.0000 0.9442 -0.3295
vn 0.6864 0.7272 -0.0000
vn 0.4934 0.7163 -0.4934
vn -0.0000 0.8235 0.5673
vn -0.5659 0.5996 0.5659
vn -0.0000 0.7272 -0.6864
vt 1.000000 0.933333
vt 0.933333 1.000000
vt 0.933333 0.933333
vt 0.066667 0.933333
vt 0.000000 1.000000
vt 0.000000 0.933333
vt 0.133333 0.933333
vt 0.066667 1.000000
vt 0.200000 0.933333
vt 0.133333 1.000000
vt 0.266667 0.933333
vt 0.200000 1.000000
vt 0.333333 0.933333
vt 0.266667 1.000000
vt 0.400000 0.933333
vt 0.333333 1.000000
vt 0.466667 0.933333
vt 0.400000 1.000000
vt 0.533333 0.933333
vt 0.466667 1.000000
vt 0.600000 0.933333
vt 0.533333 1.000000
vt 0.666667 0.933333
vt 0.600000 1.000000
vt 0.733333 0.933333
vt 0.666667 1.000000
vt 0.800000 0.933333
vt 0.733333 1.000000
vt 0.866667 0.933333
vt 0.800000 1.000000
vt 0.866667 1.000000
vt 0.933333 0.000000
vt 0.866667 0.066667
vt 0.866667 0.000000
vt 0.933333 0.066667
vt 0.866667 0.133333
vt 0.933333 0.133333
vt 0.866667 0.200000
vt 0.933333 0.200000
vt 0.866667 0.266667
vt 0.933333 0.266667
vt 0.866667 0.333333
vt 0.933333 0.333333
vt 0.866666 0.400000
vt 0.933333 0.400000
vt 0.866667 0.466667
vt 0.933333 0.466667
vt 0.866667 0.533333
vt 0.933333 0.533333
vt 0.866667 0.600000
vt 0.933333 0.600000
vt 0.866667 0.666667
vt 0.933333 0.666667
vt 0.866667 0.733333
vt 0.933333 0.733333
vt 0.866667 0.800000
vt 0.933333 0.800000
vt 0.866667 0.866667
vt 0.933333 0.866667
vt 0.800000 0.066667
vt 0.800000 0.000000
vt 0.800000 0.133333
vt 0.800000 0.200000
vt 0.800000 0.266667
vt 0.800000 0.333333
vt 0.800000 0.400000
vt 0.800000 0.466667
vt 0.800000 0.533333
vt 0.800000 0.600000
vt 0.800000 0.666667
vt 0.800000 0.733333
vt 0.800000 0.800000
vt 0.800000 0.866667
vt 0.733333 0.066667
vt 0.733333 0.000000
vt 0.733333 0.133333
vt 0.733333 0.200000
vt 0.733333 0.266667
vt 0.733333 0.333333
vt 0.733333 0.400000
vt 0.733333 0.466667
vt 0.733333 0.533333
vt 0.733333 0.600000
vt 0.733333 0.666667
vt 0.733333 0.733333
vt 0.733333 0.800000
vt 0.733333 0.866667
vt 0.666667 0.066667
vt 0.666667 0.000000
vt 0.666667 0.133333
vt 0.666667 0.200000
vt 0.666667 0.266667
vt 0.666667 0.333333
vt 0.666667 0.400000
vt 0.666667 0.466667
vt 0.666667 0.533333
vt 0.666667 0.600000
vt 0.666667 0.666667
vt 0.666667 0.733333
vt 0.666667 0.800000
vt 0.666667 0.866667
vt 0.600000 0.066667
vt 0.600000 0.000000
vt 0.600000 0.133333
vt 0.600000 0.200000
vt 0.600000 0.266667
vt 0.600000 0.333333
vt 0.600000 0.400000
vt 0.600000 0.466667
vt 0.600000 0.533333
vt 0.600000 0.600000
vt 0.600000 0.666667
vt 0.600000 0.733333
vt 0.600000 0.800000
vt 0.600000 0.866667
vt 0.533333 0.066667
vt 0.533333 0.000000
vt 0.533333 0.133333
vt 0.533333 0.200000
vt 0.533333 0.266667
vt 0.533333 0.333333
vt 0.533333 0.400000
vt 0.533333 0.466667
vt 0.533333 0.533333
vt 0.533333 0.600000
vt 0.533333 0.666667
vt 0.533333 0.733333
vt 0.533333 0.800000
vt 0.533333 0.866667
vt 0.466667 0.066667
vt 0.466667 0.000000
vt 0.466667 0.133333
vt 0.466667 0.200000
vt 0.466667 0.266667
vt 0.466667 0.333333
vt 0.466667 0.400000
vt 0.466667 0.466667
vt 0.466667 0.533333
vt 0.466667 0.600000
vt 0.466667 0.666667
vt 0.466667 0.733333
vt 0.466667 0.800000
vt 0.466667 0.866667
vt 0.400000 0.066667
vt 0.400000 0.000000
vt 0.400000 0.133333
vt 0.400000 0.200000
vt 0.400000 0.266667
vt 0.400000 0.333333
vt 0.400000 0.400000
vt 0.400000 0.466667
vt 0.400000 0.533333
vt 0.400000 0.600000
vt 0.400000 0.666667
vt 0.400000 0.733333
vt 0.400000 0.800000
vt 0.400000 0.866667
vt 0.333333 0.066667
vt 0.333333 0.000000
vt 0.333333 0.133333
vt 0.333333 0.200000
vt 0.333333 0.266667
vt 0.333333 0.333333
vt 0.333333 0.400000
vt 0.333333 0.466667
vt 0.333333 0.533333
vt 0.333333 0.600000
vt 0.333333 0.666667
vt 0.333333 0.733333
vt 0.333333 0.800000
vt 0.333333 0.866667
vt 0.266667 0.066667
vt 0.266667 0.000000
vt 0.266667 0.133333
vt 0.266667 0.200000
vt 0.266667 0.266667
vt 0.266667 0.333333
vt 0.266667 0.400000
vt 0.266667 0.466667
vt 0.266667 0.533333
vt 0.266667 0.600000
vt 0.266667 0.666667
vt 0.266667 0.733333
vt 0.266667 0.800000
vt 0.266667 0.866667
vt 0.200000 0.066667
vt 0.200000 0.000000
vt 0.200000 0.133333
vt 0.200000 0.200000
vt 0.200000 0.266667
vt 0.200000 0.333333
vt 0.200000 0.400000
vt 0.200000 0.466667
vt 0.200000 0.533333
vt 0.200000 0.600000
vt 0.200000 0.666667
vt 0.200000 0.733333
vt 0.200000 0.800000
vt 0.200000 0.866667
vt 0.133333 0.066667
vt 0.133333 0.000000
vt 0.133333 0.133333
vt 0.133333 0.200000
vt 0.133333 0.266667
vt 0.133333 0.333333
vt 0.133333 0.400000
vt 0.133333 0.466667
vt 0.133333 0.533333
vt 0.133333 0.600000
vt 0.133333 0.666667
vt 0.133333 0.733333
vt 0.133333 0.800000
vt 0.133333 0.866667
vt 0.066667 0.066667
vt 0.066667 0.000000
vt 0.066667 0.133333
vt 0.066667 0.200000
vt 0.066667 0.266667
vt 0.066667 0.333333
vt 0.066667 0.400000
vt 0.066667 0.466667
vt 0.066667 0.533333
vt 0.066667 0.600000
vt 0.066667 0.666667
vt 0.066667 0.733333
vt 0.066667 0.800000
vt 0.066667 0.866667
vt 0.000000 0.066667
vt 0.000000 0.000000
vt 0.000000 0.133333
vt 0.000000 0.200000
vt 0.000000 0.266667
vt 0.000000 0.333333
vt 0.000000 0.400000
vt 0.000000 0.466667
vt 0.000000 0.533333
vt 0.000000 0.600000
vt 0.000000 0.666667
vt 0.000000 0.733333
vt 0.000000 0.800000
vt 0.000000 0.866667
vt 1.000000 0.000000
vt 1.000000 0.066667
vt 1.000000 0.133333
vt 1.000000 0.200000
vt 1.000000 0.266667
vt 1.000000 0.333333
vt 1.000000 0.400000
vt 1.000000 0.466667
vt 1.000000 0.533333
vt 1.000000 0.600000
vt 1.000000 0.666667
vt 1.000000 0.733333
vt 1.000000 0.800000
vt 1.000000 0.866667
vt 1.000000 1.000000
s 0
usemtl Material
f 60/1/1 19/2/1 256/3/1
f 74/4/2 3/5/2 33/6/2
f 88/7/2 32/8/2 74/4/2
f 102/9/2 31/10/2 88/7/2
f 116/11/3 30/12/3 102/9/3
f 130/13/4 29/14/4 116/11/4
f 144/15/5 28/16/5 130/13/5
f 158/17/2 27/18/2 144/15/2
f 172/19/6 26/20/6 158/17/6
f 186/21/7 25/22/7 172/19/7
f 200/23/8 24/24/8 186/21/8
f 214/25/2 23/26/2 200/23/2
f 228/27/2 22/28/2 214/25/2
f 242/29/9 21/30/9 228/27/9
f 256/3/10 20/31/10 242/29/10
f 18/32/2 229/33/2 17/34/2
f 243/35/2 230/36/2 229/33/2
f 244/37/11 231/38/11 230/36/11
f 245/39/12 232/40/12 231/38/12
f 246/41/2 233/42/2 232/40/2
f 247/43/2 234/44/2 233/42/2
f 248/45/2 235/46/2 234/44/2
f 249/47/2 236/48/2 235/46/2
f 250/49/13 237/50/13 236/48/13
f 251/51/2 238/52/2 237/50/2
f 252/53/14 239/54/14 238/52/14
f 253/55/15 240/56/15 239/54/15
f 254/57/16 241/58/16 240/56/16
f 255/59/17 242/29/17 241/58/17
f 17/34/2 215/60/2 16/61/2
f 229/33/2 216/62/2 215/60/2
f 230/36/2 217/63/2 216/62/2
f 231/38/18 218/64/18 217/63/18
f 232/40/2 219/65/2 218/64/2
f 233/42/19 220/66/19 219/65/19
f 234/44/20 221/67/20 220/66/20
f 235/46/2 222/68/2 221/67/2
f 236/48/2 223/69/2 222/68/2
f 237/50/21 224/70/21 223/69/21
f 238/52/21 225/71/21 224/70/21
f 239/54/15 226/72/15 225/71/15
f 240/56/2 227/73/2 226/72/2
f 241/58/16 228/27/16 227/73/16
f 16/61/2 201/74/2 15/75/2
f 215/60/2 202/76/2 201/74/2
f 216/62/22 203/77/22 202/76/22
f 217/63/23 204/78/23 203/77/23
f 218/64/24 205/79/24 204/78/24
f 219/65/19 206/80/19 205/79/19
f 220/66/2 207/81/2 206/80/2
f 221/67/20 208/82/20 207/81/20
f 222/68/2 209/83/2 208/82/2
f 223/69/25 210/84/25 209/83/25
f 224/70/26 211/85/26 210/84/26
f 225/71/27 212/86/27 211/85/27
f 226/72/28 213/87/28 212/86/28
f 227/73/28 214/25/28 213/87/28
f 15/75/2 187/88/2 14/89/2
f 201/74/2 188/90/2 187/88/2
f 202/76/2 189/91/2 188/90/2
f 203/77/29 190/92/29 189/91/29
f 204/78/30 191/93/30 190/92/30
f 205/79/2 192/94/2 191/93/2
f 206/80/31 193/95/31 192/94/31
f 207/81/31 194/96/31 193/95/31
f 208/82/2 195/97/2 194/96/2
f 209/83/2 196/98/2 195/97/2
f 210/84/32 197/99/32 196/98/32
f 211/85/33 198/100/33 197/99/33
f 212/86/2 199/101/2 198/100/2
f 213/87/2 200/23/2 199/101/2
f 14/89/34 173/102/34 13/103/34
f 187/88/35 174/104/35 173/102/35
f 188/90/36 175/105/36 174/104/36
f 189/91/2 176/106/2 175/105/2
f 190/92/37 177/107/37 176/106/37
f 191/93/2 178/108/2 177/107/2
f 192/94/38 179/109/38 178/108/38
f 193/95/39 180/110/39 179/109/39
f 194/96/40 181/111/40 180/110/40
f 195/97/41 182/112/41 181/111/41
f 196/98/2 183/113/2 182/112/2
f 197/99/42 184/114/42 183/113/42
f 198/100/43 185/115/43 184/114/43
f 199/101/44 186/21/44 185/115/44
f 13/103/2 159/116/2 12/117/2
f 173/102/45 160/118/45 159/116/45
f 174/104/46 161/119/46 160/118/46
f 175/105/2 162/120/2 161/119/2
f 176/106/2 163/121/2 162/120/2
f 177/107/2 164/122/2 163/121/2
f 178/108/2 165/123/2 164/122/2
f 179/109/47 166/124/47 165/123/47
f 180/110/48 167/125/48 166/124/48
f 181/111/49 168/126/49 167/125/49
f 182/112/50 169/127/50 168/126/50
f 183/113/51 170/128/51 169/127/51
f 184/114/2 171/129/2 170/128/2
f 185/115/52 172/19/52 171/129/52
f 12/117/2 145/130/2 11/131/2
f 159/116/2 146/132/2 145/130/2
f 160/118/53 147/133/53 146/132/53
f 161/119/54 148/134/54 147/133/54
f 162/120/2 149/135/2 148/134/2
f 163/121/2 150/136/2 149/135/2
f 164/122/2 151/137/2 150/136/2
f 165/123/2 152/138/2 151/137/2
f 166/124/55 153/139/55 152/138/55
f 167/125/56 154/140/56 153/139/56
f 168/126/50 155/141/50 154/140/50
f 169/127/2 156/142/2 155/141/2
f 170/128/51 157/143/51 156/142/51
f 171/129/2 158/17/2 157/143/2
f 11/131/57 131/144/57 10/145/57
f 145/130/58 132/146/58 131/144/58
f 146/132/59 133/147/59 132/146/59
f 147/133/2 134/148/2 133/147/2
f 148/134/54 135/149/54 134/148/54
f 149/135/60 136/150/60 135/149/60
f 150/136/61 137/151/61 136/150/61
f 151/137/62 138/152/62 137/151/62
f 152/138/2 139/153/2 138/152/2
f 153/139/63 140/154/63 139/153/63
f 154/140/64 141/155/64 140/154/64
f 155/141/65 142/156/65 141/155/65
f 156/142/65 143/157/65 142/156/65
f 157/143/2 144/15/2 143/157/2
f 10/145/57 117/158/57 9/159/57
f 131/144/2 118/160/2 117/158/2
f 132/146/58 119/161/58 118/160/58
f 133/147/66 120/162/66 119/161/66
f 134/148/66 121/163/66 120/162/66
f 135/149/2 122/164/2 121/163/2
f 136/150/67 123/165/67 122/164/67
f 137/151/68 124/166/68 123/165/68
f 138/152/2 125/167/2 124/166/2
f 139/153/63 126/168/63 125/167/63
f 140/154/2 127/169/2 126/168/2
f 141/155/64 128/170/64 127/169/64
f 142/156/69 129/171/69 128/170/69
f 143/157/70 130/13/70 129/171/70
f 9/159/2 103/172/2 8/173/2
f 117/158/71 104/174/71 103/172/71
f 118/160/71 105/175/71 104/174/71
f 119/161/72 106/176/72 105/175/72
f 120/162/73 107/177/73 106/176/73
f 121/163/74 108/178/74 107/177/74
f 122/164/2 109/179/2 108/178/2
f 123/165/75 110/180/75 109/179/75
f 124/166/2 111/181/2 110/180/2
f 125/167/76 112/182/76 111/181/76
f 126/168/77 113/183/77 112/182/77
f 127/169/78 114/184/78 113/183/78
f 128/170/2 115/185/2 114/184/2
f 129/171/79 116/11/79 115/185/79
f 8/173/2 89/186/2 7/187/2
f 103/172/80 90/188/80 89/186/80
f 104/174/81 91/189/81 90/188/81
f 105/175/2 92/190/2 91/189/2
f 106/176/82 93/191/82 92/190/82
f 107/177/83 94/192/83 93/191/83
f 108/178/2 95/193/2 94/192/2
f 109/179/2 96/194/2 95/193/2
f 110/180/2 97/195/2 96/194/2
f 111/181/2 98/196/2 97/195/2
f 112/182/84 99/197/84 98/196/84
f 113/183/85 100/198/85 99/197/85
f 114/184/86 101/199/86 100/198/86
f 115/185/2 102/9/2 101/199/2
f 7/187/2 75/200/2 6/201/2
f 89/186/80 76/202/80 75/200/80
f 90/188/2 77/203/2 76/202/2
f 91/189/81 78/204/81 77/203/81
f 92/190/2 79/205/2 78/204/2
f 93/191/87 80/206/87 79/205/87
f 94/192/2 81/207/2 80/206/2
f 95/193/2 82/208/2 81/207/2
f 96/194/2 83/209/2 82/208/2
f 97/195/2 84/210/2 83/209/2
f 98/196/2 85/211/2 84/210/2
f 99/197/85 86/212/85 85/211/85
f 100/198/2 87/213/2 86/212/2
f 101/199/86 88/7/86 87/213/86
f 6/201/2 61/214/2 5/215/2
f 75/200/2 62/216/2 61/214/2
f 76/202/88 63/217/88 62/216/88
f 77/203/88 64/218/88 63/217/88
f 78/204/2 65/219/2 64/218/2
f 79/205/2 66/220/2 65/219/2
f 80/206/2 67/221/2 66/220/2
f 81/207/2 68/222/2 67/221/2
f 82/208/2 69/223/2 68/222/2
f 83/209/2 70/224/2 69/223/2
f 84/210/2 71/225/2 70/224/2
f 85/211/2 72/226/2 71/225/2
f 86/212/89 73/227/89 72/226/89
f 87/213/89 74/4/89 73/227/89
f 5/215/2 46/228/2 1/229/2
f 61/214/2 45/230/2 46/228/2
f 62/216/2 44/231/2 45/230/2
f 63/217/2 43/232/2 44/231/2
f 64/218/2 42/233/2 43/232/2
f 65/219/2 41/234/2 42/233/2
f 66/220/2 40/235/2 41/234/2
f 67/221/2 39/236/2 40/235/2
f 68/222/2 38/237/2 39/236/2
f 69/223/2 37/238/2 38/237/2
f 70/224/2 36/239/2 37/238/2
f 71/225/2 35/240/2 36/239/2
f 72/226/2 34/241/2 35/240/2
f 73/227/2 33/6/2 34/241/2
f 2/242/2 243/35/2 18/32/2
f 47/243/90 244/37/90 243/35/90
f 48/244/91 245/39/91 244/37/91
f 49/245/92 246/41/92 245/39/92
f 50/246/2 247/43/2 246/41/2
f 51/247/2 248/45/2 247/43/2
f 52/248/2 249/47/2 248/45/2
f 53/249/2 250/49/2 249/47/2
f 54/250/13 251/51/13 250/49/13
f 55/251/93 252/53/93 251/51/93
f 56/252/94 253/55/94 252/53/94
f 57/253/2 254/57/2 253/55/2
f 58/254/95 255/59/95 254/57/95
f 59/255/96 256/3/96 255/59/96
f 60/1/2 4/256/2 19/2/2
f 74/4/2 32/8/2 3/5/2
f 88/7/2 31/10/2 32/8/2
f 102/9/2 30/12/2 31/10/2
f 116/11/4 29/14/4 30/12/4
f 130/13/4 28/16/4 29/14/4
f 144/15/2 27/18/2 28/16/2
f 158/17/2 26/20/2 27/18/2
f 172/19/7 25/22/7 26/20/7
f 186/21/7 24/24/7 25/22/7
f 200/23/2 23/26/2 24/24/2
f 214/25/2 22/28/2 23/26/2
f 228/27/2 21/30/2 22/28/2
f 242/29/10 20/31/10 21/30/10
f 256/3/10 19/2/10 20/31/10
f 18/32/2 243/35/2 229/33/2
f 243/35/11 244/37/11 230/36/11
f 244/37/2 245/39/2 231/38/2
f 245/39/12 246/41/12 232/40/12
f 246/41/2 247/43/2 233/42/2
f 247/43/2 248/45/2 234/44/2
f 248/45/2 249/47/2 235/46/2
f 249/47/2 250/49/2 236/48/2
f 250/49/13 251/51/13 237/50/13
f 251/51/2 252/53/2 238/52/2
f 252/53/14 253/55/14 239/54/14
f 253/55/97 254/57/97 240/56/97
f 254/57/17 255/59/17 241/58/17
f 255/59/2 256/3/2 242/29/2
f 17/34/2 229/33/2 215/60/2
f 229/33/2 230/36/2 216/62/2
f 230/36/11 231/38/11 217/63/11
f 231/38/12 232/40/12 218/64/12
f 232/40/2 233/42/2 219/65/2
f 233/42/98 234/44/98 220/66/98
f 234/44/2 235/46/2 221/67/2
f 235/46/2 236/48/2 222/68/2
f 236/48/99 237/50/99 223/69/99
f 237/50/21 238/52/21 224/70/21
f 238/52/14 239/54/14 225/71/14
f 239/54/15 240/56/15 226/72/15
f 240/56/16 241/58/16 227/73/16
f 241/58/17 242/29/17 228/27/17
f 16/61/2 215/60/2 201/74/2
f 215/60/2 216/62/2 202/76/2
f 216/62/23 217/63/23 203/77/23
f 217/63/23 218/64/23 204/78/23
f 218/64/2 219/65/2 205/79/2
f 219/65/19 220/66/19 206/80/19
f 220/66/20 221/67/20 207/81/20
f 221/67/2 222/68/2 208/82/2
f 222/68/2 223/69/2 209/83/2
f 223/69/26 224/70/26 210/84/26
f 224/70/26 225/71/26 211/85/26
f 225/71/100 226/72/100 212/86/100
f 226/72/28 227/73/28 213/87/28
f 227/73/101 228/27/101 214/25/101
f 15/75/2 201/74/2 187/88/2
f 201/74/2 202/76/2 188/90/2
f 202/76/29 203/77/29 189/91/29
f 203/77/2 204/78/2 190/92/2
f 204/78/30 205/79/30 191/93/30
f 205/79/102 206/80/102 192/94/102
f 206/80/31 207/81/31 193/95/31
f 207/81/103 208/82/103 194/96/103
f 208/82/2 209/83/2 195/97/2
f 209/83/32 210/84/32 196/98/32
f 210/84/2 211/85/2 197/99/2
f 211/85/33 212/86/33 198/100/33
f 212/86/2 213/87/2 199/101/2
f 213/87/2 214/25/2 200/23/2
f 14/89/35 187/88/35 173/102/35
f 187/88/35 188/90/35 174/104/35
f 188/90/2 189/91/2 175/105/2
f 189/91/29 190/92/29 176/106/29
f 190/92/30 191/93/30 177/107/30
f 191/93/2 192/94/2 178/108/2
f 192/94/104 193/95/104 179/109/104
f 193/95/105 194/96/105 180/110/105
f 194/96/106 195/97/106 181/111/106
f 195/97/2 196/98/2 182/112/2
f 196/98/32 197/99/32 183/113/32
f 197/99/33 198/100/33 184/114/33
f 198/100/44 199/101/44 185/115/44
f 199/101/44 200/23/44 186/21/44
f 13/103/45 173/102/45 159/116/45
f 173/102/2 174/104/2 160/118/2
f 174/104/46 175/105/46 161/119/46
f 175/105/2 176/106/2 162/120/2
f 176/106/2 177/107/2 163/121/2
f 177/107/2 178/108/2 164/122/2
f 178/108/107 179/109/107 165/123/107
f 179/109/108 180/110/108 166/124/108
f 180/110/48 181/111/48 167/125/48
f 181/111/49 182/112/49 168/126/49
f 182/112/109 183/113/109 169/127/109
f 183/113/2 184/114/2 170/128/2
f 184/114/52 185/115/52 171/129/52
f 185/115/2 186/21/2 172/19/2
f 12/117/2 159/116/2 145/130/2
f 159/116/45 160/118/45 146/132/45
f 160/118/110 161/119/110 147/133/110
f 161/119/2 162/120/2 148/134/2
f 162/120/2 163/121/2 149/135/2
f 163/121/2 164/122/2 150/136/2
f 164/122/2 165/123/2 151/137/2
f 165/123/111 166/124/111 152/138/111
f 166/124/112 167/125/112 153/139/112
f 167/125/49 168/126/49 154/140/49
f 168/126/50 169/127/50 155/141/50
f 169/127/51 170/128/51 156/142/51
f 170/128/2 171/129/2 157/143/2
f 171/129/52 172/19/52 158/17/52
f 11/131/113 145/130/113 131/144/113
f 145/130/2 146/132/2 132/146/2
f 146/132/59 147/133/59 133/147/59
f 147/133/54 148/134/54 134/148/54
f 148/134/2 149/135/2 135/149/2
f 149/135/61 150/136/61 136/150/61
f 150/136/61 151/137/61 137/151/61
f 151/137/2 152/138/2 138/152/2
f 152/138/2 153/139/2 139/153/2
f 153/139/114 154/140/114 140/154/114
f 154/140/115 155/141/115 141/155/115
f 155/141/65 156/142/65 142/156/65
f 156/142/116 157/143/116 143/157/116
f 157/143/2 158/17/2 144/15/2
f 10/145/57 131/144/57 117/158/57
f 131/144/58 132/146/58 118/160/58
f 132/146/117 133/147/117 119/161/117
f 133/147/66 134/148/66 120/162/66
f 134/148/118 135/149/118 121/163/118
f 135/149/67 136/150/67 122/164/67
f 136/150/2 137/151/2 123/165/2
f 137/151/68 138/152/68 124/166/68
f 138/152/2 139/153/2 125/167/2
f 139/153/63 140/154/63 126/168/63
f 140/154/64 141/155/64 127/169/64
f 141/155/2 142/156/2 128/170/2
f 142/156/70 143/157/70 129/171/70
f 143/157/70 144/15/70 130/13/70
f 9/159/119 117/158/119 103/172/119
f 117/158/71 118/160/71 104/174/71
f 118/160/120 119/161/120 105/175/120
f 119/161/73 120/162/73 106/176/73
f 120/162/73 121/163/73 107/177/73
f 121/163/2 122/164/2 108/178/2
f 122/164/67 123/165/67 109/179/67
f 123/165/68 124/166/68 110/180/68
f 124/166/2 125/167/2 111/181/2
f 125/167/121 126/168/121 112/182/121
f 126/168/78 127/169/78 113/183/78
f 127/169/122 128/170/122 114/184/122
f 128/170/79 129/171/79 115/185/79
f 129/171/2 130/13/2 116/11/2
f 8/173/2 103/172/2 89/186/2
f 103/172/123 104/174/123 90/188/123
f 104/174/2 105/175/2 91/189/2
f 105/175/82 106/176/82 92/190/82
f 106/176/2 107/177/2 93/191/2
f 107/177/83 108/178/83 94/192/83
f 108/178/2 109/179/2 95/193/2
f 109/179/2 110/180/2 96/194/2
f 110/180/2 111/181/2 97/195/2
f 111/181/124 112/182/124 98/196/124
f 112/182/125 113/183/125 99/197/125
f 113/183/126 114/184/126 100/198/126
f 114/184/2 115/185/2 101/199/2
f 115/185/79 116/11/79 102/9/79
f 7/187/2 89/186/2 75/200/2
f 89/186/80 90/188/80 76/202/80
f 90/188/81 91/189/81 77/203/81
f 91/189/2 92/190/2 78/204/2
f 92/190/82 93/191/82 79/205/82
f 93/191/83 94/192/83 80/206/83
f 94/192/2 95/193/2 81/207/2
f 95/193/2 96/194/2 82/208/2
f 96/194/2 97/195/2 83/209/2
f 97/195/2 98/196/2 84/210/2
f 98/196/2 99/197/2 85/211/2
f 99/197/85 100/198/85 86/212/85
f 100/198/86 101/199/86 87/213/86
f 101/199/2 102/9/2 88/7/2
f 6/201/2 75/200/2 61/214/2
f 75/200/127 76/202/127 62/216/127
f 76/202/88 77/203/88 63/217/88
f 77/203/128 78/204/128 64/218/128
f 78/204/2 79/205/2 65/219/2
f 79/205/2 80/206/2 66/220/2
f 80/206/2 81/207/2 67/221/2
f 81/207/2 82/208/2 68/222/2
f 82/208/2 83/209/2 69/223/2
f 83/209/2 84/210/2 70/224/2
f 84/210/2 85/211/2 71/225/2
f 85/211/129 86/212/129 72/226/129
f 86/212/89 87/213/89 73/227/89
f 87/213/130 88/7/130 74/4/130
f 5/215/2 61/214/2 46/228/2
f 61/214/2 62/216/2 45/230/2
f 62/216/2 63/217/2 44/231/2
f 63/217/2 64/218/2 43/232/2
f 64/218/2 65/219/2 42/233/2
f 65/219/2 66/220/2 41/234/2
f 66/220/2 67/221/2 40/235/2
f 67/221/2 68/222/2 39/236/2
f 68/222/2 69/223/2 38/237/2
f 69/223/2 70/224/2 37/238/2
f 70/224/2 71/225/2 36/239/2
f 71/225/2 72/226/2 35/240/2
f 72/226/2 73/227/2 34/241/2
f 73/227/2 74/4/2 33/6/2
f 2/242/2 47/243/2 243/35/2
f 47/243/91 48/244/91 244/37/91
f 48/244/91 49/245/91 245/39/91
f 49/245/2 50/246/2 246/41/2
f 50/246/2 51/247/2 247/43/2
f 51/247/2 52/248/2 248/45/2
f 52/248/2 53/249/2 249/47/2
f 53/249/2 54/250/2 250/49/2
f 54/250/93 55/251/93 251/51/93
f 55/251/93 56/252/93 252/53/93
f 56/252/2 57/253/2 253/55/2
f 57/253/2 58/254/2 254/57/2
f 58/254/96 59/255/96 255/59/96
f 59/255/96 60/1/96 256/3/96
